<svg width="800" height="800" viewBox="0 0 800 800" fill="none" xmlns="http://www.w3.org/2000/svg">
<path d="M19.53 548.83C19.53 331.32 189.87 154.99 400 154.99C610.13 154.99 780.47 331.32 780.47 548.83" fill="#EA7875"/>
<path d="M19.53 548.83C19.53 331.32 189.87 154.99 400 154.99C610.13 154.99 780.47 331.32 780.47 548.83" stroke="white" stroke-width="3" stroke-miterlimit="10"/>
<path d="M783.08 558.81C783.08 519.14 611.57 486.98 400 486.98C188.43 486.98 16.92 519.14 16.92 558.81C16.92 590.15 124 616.81 273.31 626.62C287.75 640.99 335.48 652.68 398.19 657.74C378.26 660.65 365.25 665.41 365.25 670.78C365.25 679.64 400.46 686.81 443.9 686.81C487.34 686.81 522.55 679.63 522.55 670.78C522.55 666.56 514.53 662.71 501.43 659.85C595.59 656.42 667.32 638.75 667.32 617.45C667.32 615.15 666.48 612.9 664.87 610.7C737.72 597.62 783.1 579.21 783.1 558.81H783.08Z" fill="#EA7875" stroke="white" stroke-width="3" stroke-miterlimit="10"/>
<path d="M150.67 385.18C117.62 384.75 92.84 355.84 83.8 333.43C67.46 292.9 87.89 237.06 137.89 194.09C147.74 185.63 162.51 186.12 171.77 195.23C218.99 241.62 236.22 298.54 217.53 338.09C207.65 359 182.74 385.61 150.66 385.19L150.67 385.18Z" fill="#EA7875" stroke="white" stroke-width="3" stroke-miterlimit="10"/>
<path d="M204.14 318.059L192.27 308.539L160.11 348.629V304.949H141.29V348.649L111.35 307.789L99.08 316.779L141.29 374.379V552.449H160.11V372.929L204.14 318.059Z" fill="#EA7875" stroke="white" stroke-width="3" stroke-miterlimit="10"/>
<path d="M655.41 385.18C622.36 384.75 597.58 355.84 588.54 333.43C572.2 292.9 592.63 237.06 642.63 194.09C652.48 185.63 667.25 186.12 676.51 195.23C723.73 241.62 740.96 298.54 722.27 338.09C712.39 359 687.48 385.61 655.4 385.19L655.41 385.18Z" fill="#EA7875" stroke="white" stroke-width="3" stroke-miterlimit="10"/>
<path d="M708.88 318.059L697.01 308.539L664.85 348.629V304.949H646.03V348.649L616.09 307.789L603.82 316.779L646.03 374.379V552.449H664.85V372.929L708.88 318.059Z" fill="#EA7875" stroke="white" stroke-width="3" stroke-miterlimit="10"/>
<path d="M199.69 507.09C199.1 507.09 198.53 507.14 197.95 507.18C194.27 497.72 185.1 491.01 174.34 491.01C173.65 491.01 172.96 491.06 172.28 491.11C167.64 485.14 160.41 481.29 152.27 481.29C143.12 481.29 135.12 486.16 130.66 493.43C129.43 493.25 128.19 493.12 126.91 493.12C117.11 493.12 108.63 498.68 104.41 506.82C103.47 506.71 102.52 506.65 101.56 506.65C87.56 506.65 76.2 518 76.2 532.01C76.2 546.02 87.55 557.37 101.56 557.37C106.03 557.37 110.23 556.2 113.87 554.17C117.68 556.47 122.14 557.81 126.91 557.81C131.68 557.81 136.14 556.47 139.95 554.17C143.6 556.2 147.79 557.37 152.26 557.37C156.22 557.37 159.95 556.44 163.29 554.82C166.63 556.44 170.36 557.37 174.32 557.37C178.79 557.37 182.99 556.2 186.63 554.17C190.44 556.47 194.9 557.81 199.67 557.81C213.67 557.81 225.03 546.46 225.03 532.45C225.03 518.44 213.68 507.09 199.67 507.09H199.69Z" fill="#EA7875" stroke="white" stroke-width="3" stroke-miterlimit="10"/>
<path d="M152.47 520.16C152.05 520.16 151.64 520.19 151.23 520.22C148.6 513.47 142.05 508.67 134.36 508.67C133.86 508.67 133.38 508.71 132.89 508.74C129.58 504.48 124.41 501.72 118.6 501.72C112.06 501.72 106.35 505.2 103.17 510.39C102.29 510.26 101.41 510.17 100.49 510.17C93.49 510.17 87.43 514.14 84.42 519.95C83.75 519.87 83.07 519.83 82.38 519.83C72.38 519.83 64.27 527.94 64.27 537.94C64.27 547.94 72.38 556.05 82.38 556.05C85.57 556.05 88.57 555.22 91.18 553.77C93.9 555.41 97.08 556.37 100.5 556.37C103.92 556.37 107.09 555.41 109.82 553.77C112.43 555.22 115.42 556.05 118.62 556.05C121.45 556.05 124.12 555.38 126.5 554.23C128.89 555.39 131.55 556.05 134.38 556.05C137.57 556.05 140.57 555.22 143.18 553.77C145.9 555.41 149.08 556.37 152.5 556.37C162.5 556.37 170.61 548.26 170.61 538.26C170.61 528.26 162.5 520.15 152.5 520.15L152.47 520.16Z" fill="#EA7875" stroke="white" stroke-width="3" stroke-miterlimit="10"/>
<path d="M719.36 508.1C718.77 508.1 718.2 508.15 717.62 508.19C713.94 498.73 704.77 492.02 694.01 492.02C693.32 492.02 692.63 492.07 691.95 492.12C687.31 486.15 680.08 482.3 671.94 482.3C662.79 482.3 654.79 487.17 650.33 494.44C649.1 494.26 647.86 494.13 646.58 494.13C636.78 494.13 628.3 499.69 624.08 507.83C623.14 507.72 622.19 507.66 621.23 507.66C607.23 507.66 595.87 519.01 595.87 533.02C595.87 547.03 607.22 558.38 621.23 558.38C625.7 558.38 629.9 557.21 633.54 555.18C637.35 557.48 641.81 558.82 646.58 558.82C651.35 558.82 655.81 557.48 659.62 555.18C663.27 557.21 667.46 558.38 671.93 558.38C675.89 558.38 679.62 557.45 682.96 555.83C686.3 557.45 690.03 558.38 693.99 558.38C698.46 558.38 702.66 557.21 706.3 555.18C710.11 557.48 714.57 558.82 719.34 558.82C733.34 558.82 744.7 547.47 744.7 533.46C744.7 519.45 733.35 508.1 719.34 508.1H719.36Z" fill="#EA7875" stroke="white" stroke-width="3" stroke-miterlimit="10"/>
<path d="M440.03 124.94L423.24 92.7196L406.31 60.5596L389.37 92.7196L372.59 124.94H372.58V512.56H440.03V124.94Z" fill="#EA7875" stroke="white" stroke-width="3" stroke-miterlimit="10"/>
<path d="M514.3 512.44C518.57 511.52 527.11 509.04 534.93 501.83C547.34 490.39 548.82 475.45 549.08 471.77L259 472.18C259.28 475.86 260.82 490.79 273.28 502.17C281.14 509.35 289.69 511.78 293.96 512.68L514.3 512.43V512.44Z" fill="#EA7875" stroke="white" stroke-width="3" stroke-miterlimit="10"/>
<path d="M502.23 422.139C505.88 421.349 513.18 419.239 519.87 413.069C530.48 403.289 531.74 390.509 531.96 387.369L283.95 387.719C284.19 390.859 285.51 403.629 296.16 413.359C302.88 419.489 310.19 421.579 313.84 422.349L502.22 422.129L502.23 422.139Z" fill="#EA7875" stroke="white" stroke-width="3" stroke-miterlimit="10"/>
<path d="M489.62 337.77C492.93 337.05 499.56 335.13 505.63 329.54C515.26 320.66 516.41 309.06 516.61 306.21L291.46 306.53C291.67 309.38 292.87 320.97 302.55 329.81C308.65 335.38 315.28 337.27 318.6 337.97L489.62 337.77Z" fill="#EA7875" stroke="white" stroke-width="3" stroke-miterlimit="10"/>
</svg>
