<svg width="800" height="800" viewBox="0 0 800 800" fill="none" xmlns="http://www.w3.org/2000/svg">
<path d="M19.53 548.83C19.53 331.32 189.87 154.99 400 154.99C610.13 154.99 780.47 331.32 780.47 548.83" fill="#C3ECED"/>
<path d="M783.08 558.81C783.08 519.14 611.57 486.98 400 486.98C188.43 486.98 16.92 519.14 16.92 558.81C16.92 590.15 124 616.81 273.31 626.62C287.75 640.99 335.48 652.68 398.19 657.74C378.26 660.65 365.25 665.41 365.25 670.78C365.25 679.64 400.46 686.81 443.9 686.81C487.34 686.81 522.55 679.63 522.55 670.78C522.55 666.56 514.53 662.71 501.43 659.85C595.59 656.42 667.32 638.75 667.32 617.45C667.32 615.15 666.48 612.9 664.87 610.7C737.72 597.62 783.1 579.21 783.1 558.81H783.08Z" fill="#19A476" stroke="#11895D" stroke-miterlimit="10"/>
<path d="M150.67 385.18C117.62 384.75 92.84 355.84 83.8 333.43C67.46 292.9 87.89 237.06 137.89 194.09C147.74 185.63 162.51 186.12 171.77 195.23C218.99 241.62 236.22 298.54 217.53 338.09C207.65 359 182.74 385.61 150.66 385.19L150.67 385.18Z" fill="#19A476" stroke="#11895D" stroke-miterlimit="10"/>
<path d="M204.14 318.059L192.27 308.539L160.11 348.629V304.949H141.29V348.649L111.35 307.789L99.08 316.779L141.29 374.379V552.449H160.11V372.929L204.14 318.059Z" fill="#771707"/>
<path d="M655.41 385.18C622.36 384.75 597.58 355.84 588.54 333.43C572.2 292.9 592.63 237.06 642.63 194.09C652.48 185.63 667.25 186.12 676.51 195.23C723.73 241.62 740.96 298.54 722.27 338.09C712.39 359 687.48 385.61 655.4 385.19L655.41 385.18Z" fill="#19A476" stroke="#11895D" stroke-miterlimit="10"/>
<path d="M708.88 318.059L697.01 308.539L664.85 348.629V304.949H646.03V348.649L616.09 307.789L603.82 316.779L646.03 374.379V552.449H664.85V372.929L708.88 318.059Z" fill="#771707"/>
<path d="M182.63 508.1C182.04 508.1 181.47 508.15 180.89 508.19C177.21 498.73 168.04 492.02 157.28 492.02C156.59 492.02 155.9 492.07 155.22 492.12C150.58 486.15 143.35 482.3 135.21 482.3C126.06 482.3 118.06 487.17 113.6 494.44C112.37 494.26 111.13 494.13 109.85 494.13C100.05 494.13 91.57 499.69 87.35 507.83C86.41 507.72 85.46 507.66 84.5 507.66C70.5 507.66 59.14 519.01 59.14 533.02C59.14 547.03 70.49 558.38 84.5 558.38C88.97 558.38 93.17 557.21 96.81 555.18C100.62 557.48 105.08 558.82 109.85 558.82C114.62 558.82 119.08 557.48 122.89 555.18C126.54 557.21 130.73 558.38 135.2 558.38C139.16 558.38 142.89 557.45 146.23 555.83C149.57 557.45 153.3 558.38 157.26 558.38C161.73 558.38 165.93 557.21 169.57 555.18C173.38 557.48 177.84 558.82 182.61 558.82C196.61 558.82 207.97 547.47 207.97 533.46C207.97 519.45 196.62 508.1 182.61 508.1H182.63Z" fill="#22DC9F" stroke="#1DC08B" stroke-miterlimit="10"/>
<path d="M719.36 508.1C718.77 508.1 718.2 508.15 717.62 508.19C713.94 498.73 704.77 492.02 694.01 492.02C693.32 492.02 692.63 492.07 691.95 492.12C687.31 486.15 680.08 482.3 671.94 482.3C662.79 482.3 654.79 487.17 650.33 494.44C649.1 494.26 647.86 494.13 646.58 494.13C636.78 494.13 628.3 499.69 624.08 507.83C623.14 507.72 622.19 507.66 621.23 507.66C607.23 507.66 595.87 519.01 595.87 533.02C595.87 547.03 607.22 558.38 621.23 558.38C625.7 558.38 629.9 557.21 633.54 555.18C637.35 557.48 641.81 558.82 646.58 558.82C651.35 558.82 655.81 557.48 659.62 555.18C663.27 557.21 667.46 558.38 671.93 558.38C675.89 558.38 679.62 557.45 682.96 555.83C686.3 557.45 690.03 558.38 693.99 558.38C698.46 558.38 702.66 557.21 706.3 555.18C710.11 557.48 714.57 558.82 719.34 558.82C733.34 558.82 744.7 547.47 744.7 533.46C744.7 519.45 733.35 508.1 719.34 508.1H719.36Z" fill="#22DC9F" stroke="#1DC08B" stroke-miterlimit="10"/>
<path d="M446.4 128.11L429.61 95.8797L412.68 63.7197L395.75 95.8797L378.96 128.11V515.72H446.41V128.11H446.4Z" fill="#EDAE70" stroke="#E26E05" stroke-miterlimit="10"/>
<path d="M520.67 515.6C524.94 514.68 533.48 512.2 541.3 504.99C553.71 493.55 555.19 478.61 555.45 474.93L265.37 475.34C265.65 479.02 267.19 493.95 279.65 505.33C287.51 512.51 296.06 514.94 300.33 515.84L520.67 515.59V515.6Z" fill="#EDAE70" stroke="#E26E05" stroke-miterlimit="10"/>
<path d="M508.6 425.31C512.25 424.52 519.55 422.41 526.24 416.24C536.85 406.46 538.11 393.68 538.33 390.54L290.32 390.89C290.56 394.03 291.88 406.8 302.53 416.53C309.25 422.66 316.56 424.75 320.21 425.52L508.59 425.3L508.6 425.31Z" fill="#EDAE70" stroke="#E26E05" stroke-miterlimit="10"/>
<path d="M495.99 340.94C499.3 340.22 505.93 338.3 512 332.71C521.63 323.83 522.78 312.23 522.98 309.38L297.83 309.7C298.04 312.55 299.24 324.14 308.92 332.98C315.02 338.55 321.65 340.44 324.97 341.14L495.99 340.94Z" fill="#EDAE70" stroke="#E26E05" stroke-miterlimit="10"/>
</svg>
