<svg width="800" height="800" viewBox="0 0 800 800" fill="none" xmlns="http://www.w3.org/2000/svg">
<path d="M19.51 548.83C19.51 331.32 189.85 154.99 399.98 154.99C610.11 154.99 780.45 331.32 780.45 548.83" fill="#C3ECED"/>
<path d="M400 630.64C611.569 630.64 783.08 598.481 783.08 558.81C783.08 519.14 611.569 486.98 400 486.98C188.431 486.98 16.9199 519.14 16.9199 558.81C16.9199 598.481 188.431 630.64 400 630.64Z" fill="#EDAE70" stroke="#E26E05" stroke-miterlimit="10"/>
<path d="M88.5701 509C87.1401 509.01 86.2301 507.4 86.9101 506.08C96.1901 488.07 146.53 392.37 185.37 357.65L188.89 354.51C206.93 338.38 231.3 328.7 254.09 335.32C272.52 340.67 325.14 365.12 325.14 365.12C350.67 375.83 379.64 371.62 401.49 354.05L428.79 332.09C469.32 299.49 522.37 288.87 570.97 305.02C572.08 305.39 573.19 305.77 574.29 306.16C612.16 319.68 643.27 348.73 660.61 386.76L713.13 502C713.66 503.17 712.86 504.53 711.63 504.54L88.5801 509.01L88.5701 509Z" fill="#E8984F" stroke="#AF5205" stroke-miterlimit="10"/>
<path d="M711.61 504.529C713.04 504.529 713.79 502.819 713.11 501.989C703.83 490.729 653.43 436.099 614.59 414.399L611.07 412.429C566.67 387.619 523.7 410.759 523.7 410.759C523.7 410.759 473.18 431.549 446.02 426.439C427.11 422.879 408.93 417.399 398.47 412.139L371.17 398.419C330.64 378.039 277.59 371.409 228.99 381.499C227.88 381.729 226.77 381.969 225.67 382.219C173.08 393.949 102.47 484.539 87.2101 505.469C85.8901 507.279 86.9101 508.979 89.0801 508.999C149.03 509.549 711.6 504.529 711.6 504.529H711.61Z" fill="#EDAE70" stroke="#E26E05" stroke-miterlimit="10"/>
<path d="M683.26 610.44C683.26 586.69 594.04 567.44 483.99 567.44C373.94 567.44 284.72 586.69 284.72 610.44C284.72 628.88 338.54 644.61 414.13 650.72C394.2 653.63 381.19 658.39 381.19 663.76C381.19 672.62 416.4 679.79 459.84 679.79C503.28 679.79 538.49 672.61 538.49 663.76C538.49 659.54 530.46 655.7 517.37 652.83C611.53 649.4 683.26 631.73 683.26 610.43V610.44Z" fill="#266FB0" stroke="#153A56" stroke-miterlimit="10"/>
<path d="M188.06 548.09C199.13 547.98 210.19 547.86 221.26 547.75C218.01 509.5 217.34 464.52 222.66 414.45C227.18 371.86 235.17 333.71 244.26 300.74C237.36 300.42 230.46 300.1 223.56 299.78C213.7 333.47 204.79 371.26 198.36 412.73C190.66 462.38 187.97 507.91 188.06 548.09Z" fill="#771707"/>
<path d="M261.58 262.67C301.17 240.5 333.99 238.67 333.71 235.16C333.33 230.47 270.1 216.39 227.61 250.75C224.51 253.25 221.64 255.92 218.99 258.7C218.5 258.39 218.02 258.06 217.52 257.76C173.06 230.49 114.95 251.63 115.17 256.12C115.34 259.68 150.49 256.86 194.16 276.34C143.5 273.91 102.77 317.41 104.95 321.25C106.68 324.3 135.87 306.55 182.33 303.78C146.76 324.61 129.73 365.27 132.6 367.74C135.32 370.08 157.74 342.21 202.55 323.92C213.78 319.34 224.21 316.15 233.42 313.83C242.37 317 252.46 321.16 263.2 326.78C306.09 349.21 325.78 379.06 328.71 376.99C331.46 375.05 321.37 341.52 295.55 317.19C330.4 329.96 349.69 347.64 351.73 345.34C354.18 342.59 333.09 306.46 296.86 289.89C332.48 293.2 354.83 304.53 356.15 301.84C358.13 297.81 313.21 255.34 261.59 262.69L261.58 262.67Z" fill="#19A476" stroke="#11895D" stroke-miterlimit="10"/>
<path d="M92.9199 453.79C103.35 432.71 130.09 432.71 140.52 453.79L152.05 477.08L164.05 500.06C174.91 520.86 161.55 547.14 140.25 546.86L116.72 546.55L93.1899 546.86C71.8899 547.14 58.5299 520.86 69.3899 500.06L81.3899 477.08L92.9199 453.79Z" fill="#939393" stroke="#686868" stroke-miterlimit="10"/>
<path d="M136.66 479.93C144.26 464.59 163.72 464.59 171.31 479.93L179.7 496.89L188.44 513.62C196.35 528.76 186.62 547.89 171.11 547.69L153.98 547.46L136.85 547.69C121.35 547.9 111.62 528.76 119.52 513.62L128.26 496.89L136.65 479.93H136.66Z" fill="#939393" stroke="#686868" stroke-miterlimit="10"/>
<path d="M742.13 389.23C742.13 385.14 738.81 381.81 734.71 381.81C730.61 381.81 727.29 385.14 727.29 389.23V417.7H719.18C719.24 400.35 719.29 387.61 719.29 387.09C719.29 376.31 710.4 367.58 699.44 367.58C688.48 367.58 679.6 376.32 679.6 387.09C679.6 387.79 679.71 417.07 679.82 447.79H671.05V419.32C671.05 415.23 667.73 411.9 663.63 411.9C659.53 411.9 656.21 415.23 656.21 419.32V462.63H679.88C679.99 491.82 680.08 518.32 680.08 518.32H718.8C718.8 518.32 718.98 470.46 719.12 432.54H742.13V389.23Z" fill="#19A476" stroke="#11895D" stroke-miterlimit="10"/>
<path d="M675.97 518.32L703.11 517.95C703.94 517.94 704.06 516.74 703.24 516.57L680.81 511.93C680.16 511.8 680.05 510.91 680.64 510.62L705.91 498.26C706.61 497.92 706.31 496.85 705.53 496.94L673.97 500.36C673.38 500.42 672.98 499.76 673.32 499.27L688.39 477.43C688.83 476.79 688.06 476.02 687.42 476.46L662.32 493.58C661.91 493.86 661.34 493.63 661.24 493.14L655.78 466.78C655.63 466.04 654.57 466.04 654.41 466.78L648.96 493.1C648.86 493.6 648.28 493.82 647.87 493.52L622.62 475.2C621.99 474.74 621.2 475.5 621.63 476.15L636.9 499.22C637.23 499.72 636.82 500.38 636.22 500.3L606.89 496.31C606.13 496.21 605.78 497.24 606.46 497.61L629.76 510.6C630.32 510.91 630.19 511.76 629.56 511.89L607.28 516.5C606.46 516.67 606.58 517.88 607.42 517.88L634.06 517.97L675.97 518.32Z" fill="#22DC9F" stroke="#1DC08B" stroke-miterlimit="10"/>
</svg>
