<svg width="800" height="800" viewBox="0 0 800 800" fill="none" xmlns="http://www.w3.org/2000/svg">
<path opacity="0.99" d="M400 630.64C611.569 630.64 783.08 598.481 783.08 558.81C783.08 519.14 611.569 486.98 400 486.98C188.431 486.98 16.92 519.14 16.92 558.81C16.92 598.481 188.431 630.64 400 630.64Z" fill="#19A476" stroke="#11895D" stroke-miterlimit="10"/>
<path d="M19.53 548.83C19.53 331.32 189.87 154.99 400 154.99C610.13 154.99 780.47 331.32 780.47 548.83" fill="#C3ECED"/>
<path d="M476.74 262.83C487.71 265.53 500.2 271.13 507.3 283.71C512.69 293.26 510.78 299.4 516.65 305.31C526.83 315.55 538.93 303.49 553.44 311.07C568.84 319.12 563.14 336.87 579.63 349.95C591.51 359.37 596.39 351.69 625.15 362.19C638.56 367.08 647.18 370.36 655.08 379.47C666.18 392.27 668.47 408.56 669.42 414.03C673.02 434.83 692.47 475.69 739.26 536.07C664.22 535.35 584.56 536.79 509.52 536.07L476.72 262.83H476.74Z" fill="#EDAE70" stroke="#E26E05" stroke-miterlimit="10"/>
<path d="M298.25 279.39C295.23 279.88 290.75 280.93 285.96 283.4C284.3 284.26 281.07 286.07 277.35 289.47C267.46 298.52 269.72 305.09 263.29 307.83C256.43 310.75 251.5 306.04 242.4 306.39C235.13 306.67 225.12 310.19 213.47 324.75C210.09 323.34 204.92 321.8 199.81 323.31C189.17 326.45 185.76 340.72 184.54 345.27C180.25 361.29 167.76 389.04 137.13 439.95C122.46 445.54 110.6 451.2 101.77 455.79C86.27 463.85 80.18 468.61 75.25 474.51C70.56 480.13 68.4 484.99 67.21 487.47C62.48 497.37 52.86 511.8 31.05 530.67C113.82 529.23 215.47 528.87 298.24 527.43C299.62 444.27 298.41 364.35 298.24 279.39H298.25Z" fill="#EDAE70" stroke="#E26E05" stroke-miterlimit="10"/>
<path d="M363.23 534.37L134.12 536.06C195.59 517.8 239.83 461.51 260.56 400.821C280.66 341.941 276.54 283.26 283.87 220.26C284.49 214.93 286.87 209.9 290.85 206.29C292.24 205.03 293.72 204.041 295.23 203.571C303.56 200.971 350.26 201.78 364.95 201.78L363.23 534.38V534.37Z" fill="#EDAE70"/>
<path d="M363.23 534.37L134.12 536.06C195.59 517.8 239.83 461.511 260.56 400.821C280.66 341.941 276.54 283.26 283.87 220.26C284.49 214.93 286.87 209.9 290.85 206.29C292.24 205.03 293.72 204.041 295.23 203.571C303.56 200.971 350.26 201.78 364.95 201.78L363.23 534.38V534.37Z" stroke="#E26E05" stroke-miterlimit="10"/>
<path d="M426.09 534.37L655.2 536.06C593.73 517.8 549.49 461.51 528.76 400.821C508.66 341.941 512.78 283.26 505.45 220.26C504.83 214.93 502.45 209.9 498.47 206.29C497.08 205.03 495.6 204.041 494.09 203.571C485.76 200.971 437.47 201.78 422.79 201.78L426.1 534.38L426.09 534.37Z" fill="#EDAE70"/>
<path d="M426.09 534.37L655.2 536.06C593.73 517.8 549.49 461.511 528.76 400.821C508.66 341.941 512.78 283.26 505.45 220.26C504.83 214.93 502.45 209.9 498.47 206.29C497.08 205.03 495.6 204.041 494.09 203.571C485.76 200.971 437.47 201.78 422.79 201.78L426.1 534.38L426.09 534.37Z" stroke="#E26E05" stroke-miterlimit="10"/>
<path d="M465.91 517.73H313.93L364.94 201.66H422.78L465.91 517.73Z" fill="#266FB0"/>
<path d="M465.91 517.73H313.93L364.94 201.66H422.78L465.91 517.73Z" stroke="#153A56" stroke-miterlimit="10"/>
<path d="M611.1 627.56C611.1 611.47 570.14 597.45 509.51 590.07C564.82 582.88 601.01 570.96 601.01 557.47C601.01 535.52 505.26 517.72 387.14 517.72C269.02 517.72 173.27 535.52 173.27 557.47C173.27 573.11 221.85 586.63 292.48 593.12C243.95 600.96 212.55 613.47 212.55 627.56C212.55 636.58 225.43 644.95 247.43 651.87C252.62 653.99 259.9 655.9 268.78 657.5C289.14 662.03 314.06 665.59 341.96 667.85C322.03 670.76 309.02 675.52 309.02 680.89C309.02 689.75 344.23 696.93 387.67 696.93C431.11 696.93 466.32 689.75 466.32 680.89C466.32 676.67 458.29 672.83 445.2 669.96C539.36 666.53 611.09 648.86 611.09 627.56H611.1Z" fill="#266FB0" stroke="#153A56" stroke-miterlimit="10"/>
<path d="M486.5 484.98C475.22 484.98 465.15 490.18 458.55 498.3C453.17 490.27 444.01 484.98 433.62 484.98C423.8 484.98 415.09 489.7 409.62 496.99C406.33 495.75 402.76 495.06 399.03 495.06C393.13 495.06 387.63 496.77 382.98 499.72C377.76 490.9 368.15 484.98 357.16 484.98C347.06 484.98 338.13 489.98 332.69 497.64C326.41 492.3 318.28 489.07 309.39 489.07C289.51 489.07 273.39 505.19 273.39 525.07C273.39 544.95 289.51 561.07 309.39 561.07C323.64 561.07 335.96 552.79 341.79 540.77C346.28 543.46 351.54 545.01 357.16 545.01C363.06 545.01 368.56 543.3 373.21 540.35C378.43 549.17 388.04 555.09 399.03 555.09C408.85 555.09 417.56 550.37 423.03 543.08C426.32 544.32 429.89 545.01 433.62 545.01C441.58 545.01 448.81 541.9 454.18 536.84C460.04 548.77 472.31 556.98 486.5 556.98C506.38 556.98 522.5 540.86 522.5 520.98C522.5 501.1 506.38 484.98 486.5 484.98Z" fill="white"/>
<path opacity="0.99" d="M180.29 511.84C180.29 498.37 174.47 487.45 167.3 487.45C167.3 474.84 162.2 464.47 155.66 463.2C154.06 453.15 149.1 445.82 143.22 445.82C142.9 445.82 142.59 445.87 142.28 445.91C139.95 439.4 135.99 435.12 131.49 435.12C131.28 435.12 131.07 435.16 130.86 435.18C130.65 435.16 130.44 435.12 130.23 435.12C128.12 435.12 126.13 436.09 124.37 437.76C122.61 436.08 120.62 435.12 118.51 435.12C118.3 435.12 118.09 435.16 117.88 435.18C117.67 435.16 117.46 435.12 117.25 435.12C112.76 435.12 108.8 439.4 106.46 445.91C106.15 445.87 105.84 445.82 105.52 445.82C99.64 445.82 94.68 453.15 93.08 463.2C86.54 464.47 81.44 474.84 81.44 487.45C74.26 487.45 68.45 498.37 68.45 511.84C68.45 525.31 74.27 536.23 81.44 536.23C82.05 536.23 82.64 536.12 83.22 535.97C85.58 540.52 88.88 543.36 92.53 543.36C94.45 543.36 96.27 542.55 97.92 541.15C99.56 542.56 101.38 543.36 103.31 543.36C106.72 543.36 109.82 540.87 112.14 536.83C114.41 543.94 118.54 548.71 123.28 548.71C126.74 548.71 129.88 546.15 132.21 542.01C133.54 542.87 134.95 543.35 136.43 543.35C138.02 543.35 139.54 542.79 140.95 541.81C142.36 542.79 143.88 543.35 145.47 543.35C148.31 543.35 150.94 541.62 153.08 538.71C155.22 541.62 157.84 543.35 160.69 543.35C164.43 543.35 167.79 540.37 170.16 535.62C175.98 533.2 180.34 523.48 180.34 511.83L180.29 511.84Z" fill="#19A476" stroke="#11895D" stroke-miterlimit="10"/>
<path opacity="0.99" d="M144.41 539.041C144.41 530.851 137.77 524.201 129.57 524.201C129.57 516.531 123.74 510.221 116.28 509.441C114.45 503.321 108.78 498.871 102.07 498.871C101.71 498.871 101.35 498.901 101 498.921C98.34 494.961 93.81 492.351 88.68 492.351C88.44 492.351 88.2 492.371 87.96 492.391C87.72 492.381 87.48 492.351 87.24 492.351C84.83 492.351 82.56 492.941 80.55 493.961C78.54 492.941 76.27 492.351 73.86 492.351C73.62 492.351 73.38 492.371 73.14 492.391C72.9 492.381 72.66 492.351 72.42 492.351C67.29 492.351 62.77 494.961 60.1 498.921C59.75 498.891 59.39 498.871 59.03 498.871C52.32 498.871 46.65 503.331 44.82 509.441C37.35 510.211 31.53 516.521 31.53 524.201C23.34 524.201 16.69 530.841 16.69 539.041C16.69 547.241 23.33 553.881 31.53 553.881C32.22 553.881 32.9 553.821 33.57 553.721C36.27 556.491 40.03 558.221 44.2 558.221C46.4 558.221 48.48 557.731 50.35 556.871C52.23 557.731 54.3 558.221 56.5 558.221C60.4 558.221 63.93 556.711 66.58 554.251C69.17 558.571 73.89 561.481 79.3 561.481C83.25 561.481 86.83 559.921 89.49 557.411C91 557.931 92.62 558.231 94.31 558.231C96.13 558.231 97.86 557.891 99.47 557.291C101.08 557.891 102.81 558.231 104.63 558.231C107.88 558.231 110.87 557.171 113.32 555.401C115.76 557.171 118.76 558.231 122.01 558.231C126.28 558.231 130.12 556.421 132.83 553.531C139.48 552.061 144.45 546.141 144.45 539.051L144.41 539.041Z" fill="#19A476" stroke="#11895D" stroke-miterlimit="10"/>
<path d="M223.49 525.721C223.49 514.121 218.33 504.721 211.98 504.721C211.98 493.861 207.46 484.921 201.66 483.831C200.24 475.171 195.84 468.861 190.63 468.861C190.35 468.861 190.07 468.901 189.8 468.941C187.73 463.331 184.22 459.641 180.24 459.641C180.05 459.641 179.87 459.681 179.68 459.691C179.49 459.671 179.31 459.641 179.12 459.641C177.25 459.641 175.49 460.471 173.92 461.921C172.36 460.471 170.6 459.641 168.72 459.641C168.53 459.641 168.35 459.681 168.16 459.691C167.97 459.671 167.79 459.641 167.6 459.641C163.62 459.641 160.11 463.331 158.04 468.941C157.76 468.901 157.49 468.861 157.21 468.861C152 468.861 147.61 475.171 146.18 483.831C140.38 484.921 135.86 493.861 135.86 504.721C129.5 504.721 124.35 514.121 124.35 525.721C124.35 537.321 129.51 546.721 135.86 546.721C136.4 546.721 136.92 546.631 137.44 546.501C139.53 550.421 142.45 552.871 145.69 552.871C147.4 552.871 149.01 552.181 150.46 550.961C151.92 552.171 153.53 552.871 155.23 552.871C158.25 552.871 161 550.731 163.05 547.251C165.06 553.371 168.72 557.481 172.92 557.481C175.99 557.481 178.77 555.281 180.83 551.711C182.01 552.451 183.26 552.871 184.57 552.871C185.98 552.871 187.32 552.391 188.57 551.541C189.82 552.391 191.16 552.871 192.57 552.871C195.09 552.871 197.41 551.381 199.31 548.871C201.21 551.381 203.53 552.871 206.05 552.871C209.36 552.871 212.34 550.301 214.44 546.211C219.6 544.131 223.46 535.751 223.46 525.721H223.49Z" fill="#22DC9F"/>
<path d="M223.49 525.721C223.49 514.121 218.33 504.721 211.98 504.721C211.98 493.861 207.46 484.921 201.66 483.831C200.24 475.171 195.84 468.861 190.63 468.861C190.35 468.861 190.07 468.901 189.8 468.941C187.73 463.331 184.22 459.641 180.24 459.641C180.05 459.641 179.87 459.681 179.68 459.691C179.49 459.671 179.31 459.641 179.12 459.641C177.25 459.641 175.49 460.471 173.92 461.921C172.36 460.471 170.6 459.641 168.72 459.641C168.53 459.641 168.35 459.681 168.16 459.691C167.97 459.671 167.79 459.641 167.6 459.641C163.62 459.641 160.11 463.331 158.04 468.941C157.76 468.901 157.49 468.861 157.21 468.861C152 468.861 147.61 475.171 146.18 483.831C140.38 484.921 135.86 493.861 135.86 504.721C129.5 504.721 124.35 514.121 124.35 525.721C124.35 537.321 129.51 546.721 135.86 546.721C136.4 546.721 136.92 546.631 137.44 546.501C139.53 550.421 142.45 552.871 145.69 552.871C147.4 552.871 149.01 552.181 150.46 550.961C151.92 552.171 153.53 552.871 155.23 552.871C158.25 552.871 161 550.731 163.05 547.251C165.06 553.371 168.72 557.481 172.92 557.481C175.99 557.481 178.77 555.281 180.83 551.711C182.01 552.451 183.26 552.871 184.57 552.871C185.98 552.871 187.32 552.391 188.57 551.541C189.82 552.391 191.16 552.871 192.57 552.871C195.09 552.871 197.41 551.381 199.31 548.871C201.21 551.381 203.53 552.871 206.05 552.871C209.36 552.871 212.34 550.301 214.44 546.211C219.6 544.131 223.46 535.751 223.46 525.721H223.49Z" stroke="#1DC08B" stroke-miterlimit="10"/>
<path d="M207.89 548.72C207.89 541.71 202.21 536.03 195.2 536.03C195.2 529.47 190.22 524.07 183.83 523.41C182.26 518.18 177.42 514.37 171.68 514.37C171.37 514.37 171.07 514.39 170.76 514.42C168.48 511.03 164.61 508.8 160.23 508.8C160.02 508.8 159.82 508.82 159.61 508.83C159.4 508.83 159.2 508.8 158.99 508.8C156.93 508.8 154.99 509.3 153.27 510.18C151.55 509.31 149.61 508.8 147.55 508.8C147.34 508.8 147.14 508.82 146.93 508.83C146.72 508.83 146.52 508.8 146.31 508.8C141.92 508.8 138.05 511.03 135.78 514.42C135.48 514.4 135.17 514.37 134.86 514.37C129.12 514.37 124.28 518.18 122.71 523.41C116.32 524.07 111.34 529.47 111.34 536.03C104.33 536.03 98.65 541.71 98.65 548.72C98.65 555.73 104.33 561.41 111.34 561.41C111.93 561.41 112.51 561.36 113.08 561.28C115.38 563.65 118.6 565.13 122.17 565.13C124.05 565.13 125.83 564.71 127.43 563.98C129.03 564.71 130.81 565.13 132.69 565.13C136.02 565.13 139.04 563.84 141.31 561.73C143.53 565.43 147.56 567.91 152.19 567.91C155.57 567.91 158.63 566.58 160.91 564.43C162.2 564.88 163.59 565.13 165.04 565.13C166.59 565.13 168.07 564.84 169.45 564.33C170.83 564.84 172.31 565.13 173.86 565.13C176.64 565.13 179.2 564.23 181.29 562.71C183.38 564.22 185.94 565.13 188.72 565.13C192.37 565.13 195.65 563.58 197.97 561.11C203.65 559.85 207.91 554.79 207.91 548.73L207.89 548.72Z" fill="#22DC9F"/>
<path d="M207.89 548.72C207.89 541.71 202.21 536.03 195.2 536.03C195.2 529.47 190.22 524.07 183.83 523.41C182.26 518.18 177.42 514.37 171.68 514.37C171.37 514.37 171.07 514.39 170.76 514.42C168.48 511.03 164.61 508.8 160.23 508.8C160.02 508.8 159.82 508.82 159.61 508.83C159.4 508.83 159.2 508.8 158.99 508.8C156.93 508.8 154.99 509.3 153.27 510.18C151.55 509.31 149.61 508.8 147.55 508.8C147.34 508.8 147.14 508.82 146.93 508.83C146.72 508.83 146.52 508.8 146.31 508.8C141.92 508.8 138.05 511.03 135.78 514.42C135.48 514.4 135.17 514.37 134.86 514.37C129.12 514.37 124.28 518.18 122.71 523.41C116.32 524.07 111.34 529.47 111.34 536.03C104.33 536.03 98.65 541.71 98.65 548.72C98.65 555.73 104.33 561.41 111.34 561.41C111.93 561.41 112.51 561.36 113.08 561.28C115.38 563.65 118.6 565.13 122.17 565.13C124.05 565.13 125.83 564.71 127.43 563.98C129.03 564.71 130.81 565.13 132.69 565.13C136.02 565.13 139.04 563.84 141.31 561.73C143.53 565.43 147.56 567.91 152.19 567.91C155.57 567.91 158.63 566.58 160.91 564.43C162.2 564.88 163.59 565.13 165.04 565.13C166.59 565.13 168.07 564.84 169.45 564.33C170.83 564.84 172.31 565.13 173.86 565.13C176.64 565.13 179.2 564.23 181.29 562.71C183.38 564.22 185.94 565.13 188.72 565.13C192.37 565.13 195.65 563.58 197.97 561.11C203.65 559.85 207.91 554.79 207.91 548.73L207.89 548.72Z" stroke="#1DC08B" stroke-miterlimit="10"/>
<path opacity="0.99" d="M621.03 505.99C621.03 492.52 626.85 481.6 634.02 481.6C634.02 468.99 639.12 458.62 645.66 457.35C647.26 447.3 652.22 439.97 658.1 439.97C658.42 439.97 658.73 440.02 659.04 440.06C661.37 433.55 665.33 429.27 669.83 429.27C670.04 429.27 670.25 429.31 670.46 429.33C670.67 429.31 670.88 429.27 671.09 429.27C673.2 429.27 675.19 430.24 676.95 431.91C678.71 430.23 680.7 429.27 682.81 429.27C683.02 429.27 683.23 429.31 683.44 429.33C683.65 429.31 683.86 429.27 684.07 429.27C688.56 429.27 692.52 433.55 694.86 440.06C695.17 440.02 695.48 439.97 695.8 439.97C701.68 439.97 706.64 447.3 708.24 457.35C714.78 458.62 719.88 468.99 719.88 481.6C727.06 481.6 732.87 492.52 732.87 505.99C732.87 519.46 727.05 530.38 719.88 530.38C719.27 530.38 718.68 530.27 718.1 530.12C715.74 534.67 712.44 537.51 708.79 537.51C706.87 537.51 705.05 536.7 703.4 535.3C701.76 536.71 699.94 537.51 698.01 537.51C694.6 537.51 691.5 535.02 689.18 530.98C686.91 538.09 682.78 542.86 678.04 542.86C674.58 542.86 671.44 540.3 669.11 536.16C667.78 537.02 666.37 537.5 664.89 537.5C663.3 537.5 661.78 536.94 660.37 535.96C658.96 536.94 657.44 537.5 655.85 537.5C653.01 537.5 650.38 535.77 648.24 532.86C646.1 535.77 643.48 537.5 640.63 537.5C636.89 537.5 633.53 534.52 631.16 529.77C625.34 527.35 620.98 517.63 620.98 505.98L621.03 505.99Z" fill="#19A476" stroke="#11895D" stroke-miterlimit="10"/>
<path opacity="0.99" d="M655.2 533.19C655.2 525 661.84 518.35 670.04 518.35C670.04 510.68 675.87 504.37 683.33 503.59C685.16 497.47 690.83 493.02 697.54 493.02C697.9 493.02 698.26 493.05 698.61 493.07C701.27 489.11 705.8 486.5 710.93 486.5C711.17 486.5 711.41 486.52 711.65 486.54C711.89 486.53 712.13 486.5 712.37 486.5C714.78 486.5 717.05 487.09 719.06 488.11C721.07 487.09 723.34 486.5 725.75 486.5C725.99 486.5 726.23 486.52 726.47 486.54C726.71 486.53 726.95 486.5 727.19 486.5C732.32 486.5 736.84 489.11 739.51 493.07C739.86 493.04 740.22 493.02 740.58 493.02C747.29 493.02 752.96 497.48 754.79 503.59C762.26 504.36 768.08 510.67 768.08 518.35C776.27 518.35 782.92 524.99 782.92 533.19C782.92 541.39 776.28 548.03 768.08 548.03C767.39 548.03 766.71 547.97 766.04 547.87C763.34 550.64 759.58 552.37 755.41 552.37C753.21 552.37 751.13 551.88 749.26 551.02C747.38 551.88 745.31 552.37 743.11 552.37C739.21 552.37 735.68 550.86 733.03 548.4C730.44 552.72 725.72 555.63 720.31 555.63C716.36 555.63 712.78 554.07 710.12 551.56C708.61 552.08 706.99 552.38 705.3 552.38C703.48 552.38 701.75 552.04 700.14 551.44C698.53 552.04 696.8 552.38 694.98 552.38C691.73 552.38 688.74 551.32 686.29 549.55C683.85 551.32 680.85 552.38 677.6 552.38C673.33 552.38 669.49 550.57 666.78 547.68C660.13 546.21 655.16 540.29 655.16 533.2L655.2 533.19Z" fill="#19A476" stroke="#11895D" stroke-miterlimit="10"/>
<path d="M561.54 524.859C561.54 513.259 566.7 503.859 573.05 503.859C573.05 492.999 577.57 484.059 583.37 482.969C584.79 474.309 589.19 467.999 594.4 467.999C594.68 467.999 594.96 468.039 595.23 468.079C597.3 462.469 600.81 458.779 604.79 458.779C604.98 458.779 605.16 458.819 605.35 458.829C605.54 458.809 605.72 458.779 605.91 458.779C607.78 458.779 609.54 459.609 611.11 461.059C612.67 459.609 614.43 458.779 616.31 458.779C616.5 458.779 616.68 458.819 616.87 458.829C617.06 458.809 617.24 458.779 617.43 458.779C621.41 458.779 624.92 462.469 626.99 468.079C627.27 468.039 627.54 467.999 627.82 467.999C633.03 467.999 637.42 474.309 638.85 482.969C644.65 484.059 649.17 492.999 649.17 503.859C655.53 503.859 660.68 513.259 660.68 524.859C660.68 536.459 655.52 545.859 649.17 545.859C648.63 545.859 648.11 545.769 647.59 545.639C645.5 549.559 642.58 552.009 639.34 552.009C637.63 552.009 636.02 551.319 634.57 550.099C633.11 551.309 631.5 552.009 629.8 552.009C626.78 552.009 624.03 549.869 621.98 546.389C619.97 552.509 616.31 556.619 612.11 556.619C609.04 556.619 606.26 554.419 604.2 550.849C603.02 551.589 601.77 552.009 600.46 552.009C599.05 552.009 597.71 551.529 596.46 550.679C595.21 551.529 593.87 552.009 592.46 552.009C589.94 552.009 587.62 550.519 585.72 548.009C583.82 550.519 581.5 552.009 578.98 552.009C575.67 552.009 572.69 549.439 570.59 545.349C565.43 543.269 561.57 534.889 561.57 524.859H561.54Z" fill="#22DC9F"/>
<path d="M561.54 524.859C561.54 513.259 566.7 503.859 573.05 503.859C573.05 492.999 577.57 484.059 583.37 482.969C584.79 474.309 589.19 467.999 594.4 467.999C594.68 467.999 594.96 468.039 595.23 468.079C597.3 462.469 600.81 458.779 604.79 458.779C604.98 458.779 605.16 458.819 605.35 458.829C605.54 458.809 605.72 458.779 605.91 458.779C607.78 458.779 609.54 459.609 611.11 461.059C612.67 459.609 614.43 458.779 616.31 458.779C616.5 458.779 616.68 458.819 616.87 458.829C617.06 458.809 617.24 458.779 617.43 458.779C621.41 458.779 624.92 462.469 626.99 468.079C627.27 468.039 627.54 467.999 627.82 467.999C633.03 467.999 637.42 474.309 638.85 482.969C644.65 484.059 649.17 492.999 649.17 503.859C655.53 503.859 660.68 513.259 660.68 524.859C660.68 536.459 655.52 545.859 649.17 545.859C648.63 545.859 648.11 545.769 647.59 545.639C645.5 549.559 642.58 552.009 639.34 552.009C637.63 552.009 636.02 551.319 634.57 550.099C633.11 551.309 631.5 552.009 629.8 552.009C626.78 552.009 624.03 549.869 621.98 546.389C619.97 552.509 616.31 556.619 612.11 556.619C609.04 556.619 606.26 554.419 604.2 550.849C603.02 551.589 601.77 552.009 600.46 552.009C599.05 552.009 597.71 551.529 596.46 550.679C595.21 551.529 593.87 552.009 592.46 552.009C589.94 552.009 587.62 550.519 585.72 548.009C583.82 550.519 581.5 552.009 578.98 552.009C575.67 552.009 572.69 549.439 570.59 545.349C565.43 543.269 561.57 534.889 561.57 524.859H561.54Z" stroke="#1DC08B" stroke-miterlimit="10"/>
<path d="M593.42 542.859C593.42 535.849 599.1 530.169 606.11 530.169C606.11 523.609 611.09 518.209 617.48 517.549C619.05 512.319 623.89 508.509 629.63 508.509C629.94 508.509 630.24 508.529 630.55 508.559C632.83 505.169 636.7 502.939 641.08 502.939C641.29 502.939 641.49 502.959 641.7 502.969C641.91 502.969 642.11 502.939 642.32 502.939C644.38 502.939 646.32 503.439 648.04 504.319C649.76 503.449 651.7 502.939 653.76 502.939C653.97 502.939 654.17 502.959 654.38 502.969C654.59 502.969 654.79 502.939 655 502.939C659.39 502.939 663.26 505.169 665.53 508.559C665.83 508.539 666.14 508.509 666.45 508.509C672.19 508.509 677.03 512.319 678.6 517.549C684.99 518.209 689.97 523.609 689.97 530.169C696.98 530.169 702.66 535.849 702.66 542.859C702.66 549.869 696.98 555.549 689.97 555.549C689.38 555.549 688.8 555.499 688.23 555.419C685.93 557.789 682.71 559.269 679.14 559.269C677.26 559.269 675.48 558.849 673.88 558.119C672.28 558.849 670.5 559.269 668.62 559.269C665.29 559.269 662.27 557.979 660 555.869C657.78 559.569 653.75 562.049 649.12 562.049C645.74 562.049 642.68 560.719 640.4 558.569C639.11 559.019 637.72 559.269 636.27 559.269C634.72 559.269 633.24 558.979 631.86 558.469C630.48 558.979 629 559.269 627.45 559.269C624.67 559.269 622.11 558.369 620.02 556.849C617.93 558.359 615.37 559.269 612.59 559.269C608.94 559.269 605.66 557.719 603.34 555.249C597.66 553.989 593.4 548.929 593.4 542.869L593.42 542.859Z" fill="#22DC9F"/>
<path d="M593.42 542.859C593.42 535.849 599.1 530.169 606.11 530.169C606.11 523.609 611.09 518.209 617.48 517.549C619.05 512.319 623.89 508.509 629.63 508.509C629.94 508.509 630.24 508.529 630.55 508.559C632.83 505.169 636.7 502.939 641.08 502.939C641.29 502.939 641.49 502.959 641.7 502.969C641.91 502.969 642.11 502.939 642.32 502.939C644.38 502.939 646.32 503.439 648.04 504.319C649.76 503.449 651.7 502.939 653.76 502.939C653.97 502.939 654.17 502.959 654.38 502.969C654.59 502.969 654.79 502.939 655 502.939C659.39 502.939 663.26 505.169 665.53 508.559C665.83 508.539 666.14 508.509 666.45 508.509C672.19 508.509 677.03 512.319 678.6 517.549C684.99 518.209 689.97 523.609 689.97 530.169C696.98 530.169 702.66 535.849 702.66 542.859C702.66 549.869 696.98 555.549 689.97 555.549C689.38 555.549 688.8 555.499 688.23 555.419C685.93 557.789 682.71 559.269 679.14 559.269C677.26 559.269 675.48 558.849 673.88 558.119C672.28 558.849 670.5 559.269 668.62 559.269C665.29 559.269 662.27 557.979 660 555.869C657.78 559.569 653.75 562.049 649.12 562.049C645.74 562.049 642.68 560.719 640.4 558.569C639.11 559.019 637.72 559.269 636.27 559.269C634.72 559.269 633.24 558.979 631.86 558.469C630.48 558.979 629 559.269 627.45 559.269C624.67 559.269 622.11 558.369 620.02 556.849C617.93 558.359 615.37 559.269 612.59 559.269C608.94 559.269 605.66 557.719 603.34 555.249C597.66 553.989 593.4 548.929 593.4 542.869L593.42 542.859Z" stroke="#1DC08B" stroke-miterlimit="10"/>
</svg>
