<svg width="800" height="800" viewBox="0 0 800 800" fill="none" xmlns="http://www.w3.org/2000/svg">
<path d="M19.53 548.83C19.53 331.32 189.87 154.99 400 154.99C610.13 154.99 780.47 331.32 780.47 548.83" fill="#C3ECED"/>
<path d="M783.08 558.81C783.08 519.14 611.57 486.98 400 486.98C188.43 486.98 16.9199 519.14 16.9199 558.81C16.9199 588.95 115.9 614.75 256.23 625.41C269.15 640.33 317.77 652.53 382.23 657.74C362.3 660.65 349.29 665.41 349.29 670.78C349.29 679.64 384.5 686.81 427.94 686.81C471.38 686.81 506.59 679.63 506.59 670.78C506.59 666.56 498.57 662.71 485.47 659.85C579.63 656.42 651.36 638.75 651.36 617.45C651.36 616 651.02 614.57 650.38 613.17C731.65 600 783.08 580.53 783.08 558.81Z" fill="#19A476" stroke="#11895D" stroke-miterlimit="10"/>
<path d="M727.69 513.18L613.79 362.34C608.89 355.85 599.15 355.85 594.25 362.34L572.59 391.02L520.35 320.65C515.46 314.06 505.59 314.06 500.69 320.65L357.71 513.26C351.71 521.34 357.48 532.8 367.54 532.8H717.91C728.02 532.8 733.77 521.25 727.68 513.18H727.69Z" fill="#19A476" stroke="#11895D" stroke-miterlimit="10"/>
<path d="M199.96 366.129L64.8602 512.249C57.6102 520.089 63.1702 532.799 73.8502 532.799H344.05C354.73 532.799 360.29 520.089 353.04 512.249L217.94 366.129C213.09 360.889 204.81 360.889 199.96 366.129Z" fill="#19A476" stroke="#11895D" stroke-miterlimit="10"/>
<path d="M333.3 273.52L159.73 513.38C153.87 521.47 159.66 532.8 169.65 532.8H516.79C526.78 532.8 532.56 521.48 526.71 513.38L353.14 273.52C348.25 266.77 338.19 266.77 333.31 273.52H333.3Z" fill="#19A476" stroke="#11895D" stroke-miterlimit="10"/>
<path d="M112.88 508.21C112.53 508.21 112.2 508.24 111.86 508.26C109.7 502.71 104.31 498.77 98.0001 498.77C97.5901 498.77 97.1901 498.8 96.7901 498.83C94.0701 495.33 89.8201 493.06 85.0401 493.06C79.6701 493.06 74.9701 495.92 72.3501 500.19C71.6301 500.08 70.9001 500.01 70.1501 500.01C64.4001 500.01 59.4201 503.28 56.9401 508.05C56.3901 507.99 55.8301 507.95 55.2601 507.95C47.0401 507.95 40.3701 514.61 40.3701 522.84C40.3701 531.07 47.0301 537.73 55.2601 537.73C57.8901 537.73 60.3501 537.04 62.4901 535.85C64.7301 537.2 67.3401 537.99 70.1501 537.99C72.9601 537.99 75.5701 537.2 77.8101 535.85C79.9501 537.04 82.4101 537.73 85.0401 537.73C87.3601 537.73 89.5601 537.18 91.5201 536.23C93.4801 537.18 95.6701 537.73 98.0001 537.73C100.63 537.73 103.09 537.04 105.23 535.85C107.47 537.2 110.08 537.99 112.89 537.99C121.11 537.99 127.78 531.33 127.78 523.1C127.78 514.87 121.12 508.21 112.89 508.21H112.88Z" fill="#22DC9F" stroke="#1DC08B" stroke-miterlimit="10"/>
<path d="M552.51 508.21C552.16 508.21 551.83 508.24 551.49 508.26C549.33 502.71 543.94 498.77 537.63 498.77C537.22 498.77 536.82 498.8 536.42 498.83C533.7 495.33 529.45 493.06 524.67 493.06C519.3 493.06 514.6 495.92 511.98 500.19C511.26 500.08 510.53 500.01 509.78 500.01C504.03 500.01 499.05 503.28 496.57 508.05C496.02 507.99 495.46 507.95 494.89 507.95C486.67 507.95 480 514.61 480 522.84C480 531.07 486.66 537.73 494.89 537.73C497.52 537.73 499.98 537.04 502.12 535.85C504.36 537.2 506.97 537.99 509.78 537.99C512.59 537.99 515.2 537.2 517.44 535.85C519.58 537.04 522.04 537.73 524.67 537.73C526.99 537.73 529.19 537.18 531.15 536.23C533.11 537.18 535.3 537.73 537.63 537.73C540.26 537.73 542.72 537.04 544.86 535.85C547.1 537.2 549.71 537.99 552.52 537.99C560.74 537.99 567.41 531.33 567.41 523.1C567.41 514.87 560.75 508.21 552.52 508.21H552.51Z" fill="#22DC9F" stroke="#1DC08B" stroke-miterlimit="10"/>
<path d="M596.2 508.21C595.85 508.21 595.52 508.24 595.18 508.26C593.02 502.71 587.63 498.77 581.32 498.77C580.91 498.77 580.51 498.8 580.11 498.83C577.39 495.33 573.14 493.06 568.36 493.06C562.99 493.06 558.29 495.92 555.67 500.19C554.95 500.08 554.22 500.01 553.47 500.01C547.72 500.01 542.74 503.28 540.26 508.05C539.71 507.99 539.15 507.95 538.58 507.95C530.36 507.95 523.69 514.61 523.69 522.84C523.69 531.07 530.35 537.73 538.58 537.73C541.21 537.73 543.67 537.04 545.81 535.85C548.05 537.2 550.66 537.99 553.47 537.99C556.28 537.99 558.89 537.2 561.13 535.85C563.27 537.04 565.73 537.73 568.36 537.73C570.68 537.73 572.88 537.18 574.84 536.23C576.8 537.18 578.99 537.73 581.32 537.73C583.95 537.73 586.41 537.04 588.55 535.85C590.79 537.2 593.4 537.99 596.21 537.99C604.43 537.99 611.1 531.33 611.1 523.1C611.1 514.87 604.44 508.21 596.21 508.21H596.2Z" fill="#22DC9F" stroke="#1DC08B" stroke-miterlimit="10"/>
<path d="M744.73 508.21C744.38 508.21 744.05 508.24 743.71 508.26C741.55 502.71 736.16 498.77 729.85 498.77C729.44 498.77 729.04 498.8 728.64 498.83C725.92 495.33 721.67 493.06 716.89 493.06C711.52 493.06 706.82 495.92 704.2 500.19C703.48 500.08 702.75 500.01 702 500.01C696.25 500.01 691.27 503.28 688.79 508.05C688.24 507.99 687.68 507.95 687.11 507.95C678.89 507.95 672.22 514.61 672.22 522.84C672.22 531.07 678.88 537.73 687.11 537.73C689.74 537.73 692.2 537.04 694.34 535.85C696.58 537.2 699.19 537.99 702 537.99C704.81 537.99 707.42 537.2 709.66 535.85C711.8 537.04 714.26 537.73 716.89 537.73C719.21 537.73 721.41 537.18 723.37 536.23C725.33 537.18 727.52 537.73 729.85 537.73C732.48 537.73 734.94 537.04 737.08 535.85C739.32 537.2 741.93 537.99 744.74 537.99C752.96 537.99 759.63 531.33 759.63 523.1C759.63 514.87 752.97 508.21 744.74 508.21H744.73Z" fill="#22DC9F" stroke="#1DC08B" stroke-miterlimit="10"/>
<path d="M569.07 239.17C564.97 228.45 554.61 220.83 542.45 220.83C541.02 220.83 539.62 220.97 538.25 221.17C535.25 208.63 523.99 199.29 510.53 199.29C497.07 199.29 485.81 208.63 482.81 221.17C481.43 220.97 480.04 220.83 478.61 220.83C466.45 220.83 456.09 228.45 451.99 239.17C439 241.83 429.22 253.33 429.22 267.12C429.22 282.88 441.99 295.65 457.75 295.65C464.4 295.65 470.49 293.36 475.34 289.55C480.19 293.36 486.29 295.65 492.93 295.65C499.57 295.65 505.67 293.36 510.52 289.55C515.37 293.36 521.47 295.65 528.11 295.65C534.75 295.65 540.85 293.36 545.7 289.55C550.55 293.36 556.65 295.65 563.29 295.65C579.05 295.65 591.82 282.88 591.82 267.12C591.82 253.34 582.05 241.84 569.05 239.17H569.07Z" fill="white" stroke="#C3ECED" stroke-miterlimit="10"/>
</svg>
