<svg width="800" height="800" viewBox="0 0 800 800" fill="none" xmlns="http://www.w3.org/2000/svg">
<path d="M19.53 548.83C19.53 331.32 189.87 154.99 400 154.99C610.13 154.99 780.47 331.32 780.47 548.83" fill="#EDAE70"/>
<path d="M19.53 548.83C19.53 331.32 189.87 154.99 400 154.99C610.13 154.99 780.47 331.32 780.47 548.83" stroke="white" stroke-width="3" stroke-miterlimit="10"/>
<path d="M783.08 558.81C783.08 519.14 611.57 486.98 400 486.98C188.43 486.98 16.9199 519.14 16.9199 558.81C16.9199 588.95 115.9 614.75 256.23 625.41C269.15 640.33 317.77 652.53 382.23 657.74C362.3 660.65 349.29 665.41 349.29 670.78C349.29 679.64 384.5 686.81 427.94 686.81C471.38 686.81 506.59 679.63 506.59 670.78C506.59 666.56 498.57 662.71 485.47 659.85C579.63 656.42 651.36 638.75 651.36 617.45C651.36 616 651.02 614.57 650.38 613.17C731.65 600 783.08 580.53 783.08 558.81Z" fill="#EDAE70" stroke="white" stroke-width="3" stroke-miterlimit="10"/>
<path d="M727.69 516.97L613.79 366.13C608.89 359.64 599.15 359.64 594.25 366.13L572.59 394.81L520.35 324.44C515.46 317.85 505.59 317.85 500.69 324.44L357.71 517.05C351.71 525.13 357.48 536.59 367.54 536.59H717.91C728.02 536.59 733.77 525.04 727.68 516.97H727.69Z" fill="#EDAE70" stroke="white" stroke-width="3" stroke-miterlimit="10"/>
<path d="M199.96 369.909L64.8602 516.03C57.6102 523.87 63.1702 536.579 73.8502 536.579H344.05C354.73 536.579 360.29 523.87 353.04 516.03L217.94 369.909C213.09 364.669 204.81 364.669 199.96 369.909Z" fill="#EDAE70" stroke="white" stroke-width="3" stroke-miterlimit="10"/>
<path d="M333.3 277.3L159.73 517.16C153.87 525.25 159.66 536.58 169.65 536.58H516.79C526.78 536.58 532.56 525.26 526.71 517.16L353.14 277.3C348.25 270.55 338.19 270.55 333.31 277.3H333.3Z" fill="#EDAE70" stroke="white" stroke-width="3" stroke-miterlimit="10"/>
<path d="M112.88 512C112.53 512 112.2 512.03 111.86 512.05C109.7 506.5 104.31 502.56 98.0001 502.56C97.5901 502.56 97.1901 502.59 96.7901 502.62C94.0701 499.12 89.8201 496.85 85.0401 496.85C79.6701 496.85 74.9701 499.71 72.3501 503.98C71.6301 503.87 70.9001 503.8 70.1501 503.8C64.4001 503.8 59.4201 507.07 56.9401 511.84C56.3901 511.78 55.8301 511.74 55.2601 511.74C47.0401 511.74 40.3701 518.4 40.3701 526.63C40.3701 534.86 47.0301 541.52 55.2601 541.52C57.8901 541.52 60.3501 540.83 62.4901 539.64C64.7301 540.99 67.3401 541.78 70.1501 541.78C72.9601 541.78 75.5701 540.99 77.8101 539.64C79.9501 540.83 82.4101 541.52 85.0401 541.52C87.3601 541.52 89.5601 540.97 91.5201 540.02C93.4801 540.97 95.6701 541.52 98.0001 541.52C100.63 541.52 103.09 540.83 105.23 539.64C107.47 540.99 110.08 541.78 112.89 541.78C121.11 541.78 127.78 535.12 127.78 526.89C127.78 518.66 121.12 512 112.89 512H112.88Z" fill="#EDAE70" stroke="white" stroke-width="3" stroke-miterlimit="10"/>
<path d="M552.51 512C552.16 512 551.83 512.03 551.49 512.05C549.33 506.5 543.94 502.56 537.63 502.56C537.22 502.56 536.82 502.59 536.42 502.62C533.7 499.12 529.45 496.85 524.67 496.85C519.3 496.85 514.6 499.71 511.98 503.98C511.26 503.87 510.53 503.8 509.78 503.8C504.03 503.8 499.05 507.07 496.57 511.84C496.02 511.78 495.46 511.74 494.89 511.74C486.67 511.74 480 518.4 480 526.63C480 534.86 486.66 541.52 494.89 541.52C497.52 541.52 499.98 540.83 502.12 539.64C504.36 540.99 506.97 541.78 509.78 541.78C512.59 541.78 515.2 540.99 517.44 539.64C519.58 540.83 522.04 541.52 524.67 541.52C526.99 541.52 529.19 540.97 531.15 540.02C533.11 540.97 535.3 541.52 537.63 541.52C540.26 541.52 542.72 540.83 544.86 539.64C547.1 540.99 549.71 541.78 552.52 541.78C560.74 541.78 567.41 535.12 567.41 526.89C567.41 518.66 560.75 512 552.52 512H552.51Z" fill="#EDAE70" stroke="white" stroke-width="3" stroke-miterlimit="10"/>
<path d="M596.2 512C595.85 512 595.52 512.03 595.18 512.05C593.02 506.5 587.63 502.56 581.32 502.56C580.91 502.56 580.51 502.59 580.11 502.62C577.39 499.12 573.14 496.85 568.36 496.85C562.99 496.85 558.29 499.71 555.67 503.98C554.95 503.87 554.22 503.8 553.47 503.8C547.72 503.8 542.74 507.07 540.26 511.84C539.71 511.78 539.15 511.74 538.58 511.74C530.36 511.74 523.69 518.4 523.69 526.63C523.69 534.86 530.35 541.52 538.58 541.52C541.21 541.52 543.67 540.83 545.81 539.64C548.05 540.99 550.66 541.78 553.47 541.78C556.28 541.78 558.89 540.99 561.13 539.64C563.27 540.83 565.73 541.52 568.36 541.52C570.68 541.52 572.88 540.97 574.84 540.02C576.8 540.97 578.99 541.52 581.32 541.52C583.95 541.52 586.41 540.83 588.55 539.64C590.79 540.99 593.4 541.78 596.21 541.78C604.43 541.78 611.1 535.12 611.1 526.89C611.1 518.66 604.44 512 596.21 512H596.2Z" fill="#EDAE70" stroke="white" stroke-width="3" stroke-miterlimit="10"/>
<path d="M744.73 512C744.38 512 744.05 512.03 743.71 512.05C741.55 506.5 736.16 502.56 729.85 502.56C729.44 502.56 729.04 502.59 728.64 502.62C725.92 499.12 721.67 496.85 716.89 496.85C711.52 496.85 706.82 499.71 704.2 503.98C703.48 503.87 702.75 503.8 702 503.8C696.25 503.8 691.27 507.07 688.79 511.84C688.24 511.78 687.68 511.74 687.11 511.74C678.89 511.74 672.22 518.4 672.22 526.63C672.22 534.86 678.88 541.52 687.11 541.52C689.74 541.52 692.2 540.83 694.34 539.64C696.58 540.99 699.19 541.78 702 541.78C704.81 541.78 707.42 540.99 709.66 539.64C711.8 540.83 714.26 541.52 716.89 541.52C719.21 541.52 721.41 540.97 723.37 540.02C725.33 540.97 727.52 541.52 729.85 541.52C732.48 541.52 734.94 540.83 737.08 539.64C739.32 540.99 741.93 541.78 744.74 541.78C752.96 541.78 759.63 535.12 759.63 526.89C759.63 518.66 752.97 512 744.74 512H744.73Z" fill="#EDAE70" stroke="white" stroke-width="3" stroke-miterlimit="10"/>
<path d="M622.68 176.84C618.48 165.87 607.88 158.07 595.44 158.07C593.97 158.07 592.55 158.21 591.14 158.42C588.07 145.59 576.55 136.03 562.78 136.03C549.01 136.03 537.49 145.58 534.42 158.42C533.01 158.21 531.58 158.07 530.12 158.07C517.67 158.07 507.08 165.87 502.88 176.84C489.58 179.57 479.58 191.33 479.58 205.44C479.58 221.56 492.65 234.63 508.77 234.63C515.57 234.63 521.81 232.29 526.77 228.39C531.73 232.29 537.97 234.63 544.77 234.63C551.57 234.63 557.81 232.29 562.77 228.39C567.73 232.29 573.97 234.63 580.77 234.63C587.57 234.63 593.81 232.29 598.77 228.39C603.73 232.29 609.97 234.63 616.77 234.63C632.89 234.63 645.96 221.56 645.96 205.44C645.96 191.34 635.96 179.57 622.66 176.84H622.68Z" fill="#EDAE70" stroke="white" stroke-width="3" stroke-miterlimit="10"/>
</svg>
