<svg width="800" height="800" viewBox="0 0 800 800" fill="none" xmlns="http://www.w3.org/2000/svg">
<path d="M19.74 563.04C19.74 345.53 190.08 169.2 400.21 169.2C610.34 169.2 780.68 345.53 780.68 563.04" fill="#266FB0"/>
<path d="M19.74 563.04C19.74 345.53 190.08 169.2 400.21 169.2C610.34 169.2 780.68 345.53 780.68 563.04" stroke="white" stroke-width="3" stroke-miterlimit="10"/>
<path d="M400 644.85C611.569 644.85 783.08 612.691 783.08 573.02C783.08 533.35 611.569 501.19 400 501.19C188.431 501.19 16.92 533.35 16.92 573.02C16.92 612.691 188.431 644.85 400 644.85Z" fill="#266FB0" stroke="white" stroke-width="3" stroke-miterlimit="10"/>
<path d="M192.11 497.26C191.54 497.26 190.98 497.31 190.41 497.35C186.82 488.14 177.89 481.61 167.42 481.61C166.74 481.61 166.08 481.66 165.42 481.71C160.9 475.9 153.86 472.15 145.93 472.15C137.02 472.15 129.23 476.89 124.89 483.97C123.7 483.79 122.48 483.67 121.24 483.67C111.7 483.67 103.44 489.09 99.33 497.01C98.42 496.91 97.49 496.84 96.55 496.84C82.91 496.84 71.86 507.89 71.86 521.53C71.86 535.17 82.91 546.22 96.55 546.22C100.9 546.22 104.99 545.08 108.54 543.11C112.25 545.35 116.59 546.66 121.24 546.66C125.89 546.66 130.23 545.35 133.94 543.11C137.49 545.09 141.58 546.22 145.93 546.22C149.79 546.22 153.42 545.31 156.67 543.73C159.92 545.31 163.56 546.22 167.41 546.22C171.76 546.22 175.85 545.08 179.4 543.11C183.11 545.35 187.45 546.66 192.1 546.66C205.74 546.66 216.79 535.61 216.79 521.97C216.79 508.33 205.74 497.28 192.1 497.28L192.11 497.26Z" fill="#266FB0" stroke="white" stroke-width="3" stroke-miterlimit="10"/>
<path d="M703.87 497.26C703.3 497.26 702.74 497.31 702.17 497.35C698.58 488.14 689.65 481.61 679.18 481.61C678.5 481.61 677.84 481.66 677.18 481.71C672.66 475.9 665.62 472.15 657.69 472.15C648.78 472.15 640.99 476.89 636.65 483.97C635.46 483.79 634.24 483.67 633 483.67C623.46 483.67 615.2 489.09 611.09 497.01C610.18 496.91 609.25 496.84 608.31 496.84C594.67 496.84 583.62 507.89 583.62 521.53C583.62 535.17 594.67 546.22 608.31 546.22C612.66 546.22 616.75 545.08 620.3 543.11C624.01 545.35 628.35 546.66 633 546.66C637.65 546.66 641.99 545.35 645.7 543.11C649.25 545.09 653.34 546.22 657.69 546.22C661.55 546.22 665.18 545.31 668.43 543.73C671.68 545.31 675.32 546.22 679.17 546.22C683.52 546.22 687.61 545.08 691.16 543.11C694.87 545.35 699.21 546.66 703.86 546.66C717.5 546.66 728.55 535.61 728.55 521.97C728.55 508.33 717.5 497.28 703.86 497.28L703.87 497.26Z" fill="#266FB0" stroke="white" stroke-width="3" stroke-miterlimit="10"/>
<path d="M710.79 631.67C710.79 607.92 621.57 588.67 511.52 588.67C401.47 588.67 312.25 607.92 312.25 631.67C312.25 650.11 366.07 665.84 441.66 671.95C421.73 674.86 408.72 679.62 408.72 684.99C408.72 693.85 443.93 701.02 487.37 701.02C530.81 701.02 566.02 693.84 566.02 684.99C566.02 680.77 557.99 676.93 544.9 674.06C639.06 670.63 710.79 652.96 710.79 631.66V631.67Z" fill="#266FB0" stroke="white" stroke-width="3" stroke-miterlimit="10"/>
<path d="M509.87 438.75C508.55 438.75 507.27 438.86 505.98 438.95C497.75 417.82 477.25 402.81 453.21 402.81C451.66 402.81 450.13 402.92 448.61 403.04C438.24 389.7 422.09 381.09 403.89 381.09C383.43 381.09 365.56 391.97 355.6 408.22C352.86 407.81 350.08 407.53 347.22 407.53C325.33 407.53 306.37 419.97 296.93 438.14C294.83 437.9 292.71 437.76 290.55 437.76C259.25 437.76 233.88 463.13 233.88 494.43C233.88 525.73 259.25 551.1 290.55 551.1C300.54 551.1 309.92 548.49 318.07 543.95C326.59 549.08 336.54 552.09 347.22 552.09C357.9 552.09 367.84 549.08 376.37 543.95C384.52 548.49 393.9 551.1 403.89 551.1C412.74 551.1 421.08 549.01 428.55 545.39C436.01 549.01 444.36 551.1 453.21 551.1C463.2 551.1 472.58 548.49 480.73 543.95C489.25 549.08 499.2 552.09 509.88 552.09C541.18 552.09 566.55 526.72 566.55 495.42C566.55 464.12 541.18 438.75 509.88 438.75H509.87Z" fill="#266FB0" stroke="white" stroke-width="3" stroke-miterlimit="10"/>
<path d="M428.73 440.989C428.03 440.289 427.28 439.69 426.51 439.14C427.6 438.47 428.63 437.679 429.58 436.739C436.1 430.219 436.1 419.649 429.58 413.119C423.06 406.599 412.49 406.599 405.96 413.119C405 414.079 404.2 415.129 403.52 416.239C402.92 415.339 402.23 414.489 401.43 413.689C394.91 407.169 384.34 407.169 377.81 413.689C371.28 420.209 371.29 430.779 377.81 437.309C378.63 438.129 379.5 438.84 380.43 439.45C379.21 440.16 378.05 441.02 377 442.07C370.48 448.59 370.48 459.16 377 465.689C383.52 472.209 394.09 472.209 400.62 465.689C401.65 464.66 402.5 463.519 403.21 462.309C403.77 463.119 404.4 463.889 405.11 464.609C411.63 471.129 422.2 471.129 428.73 464.609C435.25 458.089 435.25 447.519 428.73 440.989Z" fill="#266FB0" stroke="white" stroke-width="3" stroke-miterlimit="10"/>
<path d="M403.15 452.459C410.435 452.459 416.34 446.554 416.34 439.269C416.34 431.984 410.435 426.079 403.15 426.079C395.865 426.079 389.96 431.984 389.96 439.269C389.96 446.554 395.865 452.459 403.15 452.459Z" fill="#266FB0" stroke="white" stroke-width="3" stroke-miterlimit="10"/>
<path d="M338.16 497.25C337.62 496.71 337.03 496.24 336.43 495.81C337.28 495.29 338.08 494.67 338.82 493.94C343.9 488.86 343.9 480.62 338.82 475.53C333.74 470.45 325.5 470.45 320.41 475.53C319.66 476.28 319.04 477.1 318.51 477.96C318.04 477.26 317.5 476.59 316.88 475.97C311.8 470.89 303.56 470.89 298.47 475.97C293.39 481.05 293.39 489.29 298.47 494.38C299.11 495.02 299.79 495.57 300.51 496.05C299.56 496.6 298.65 497.28 297.83 498.09C292.75 503.17 292.75 511.41 297.83 516.5C302.91 521.58 311.15 521.58 316.24 516.5C317.04 515.7 317.71 514.81 318.26 513.87C318.7 514.5 319.18 515.1 319.74 515.66C324.82 520.74 333.06 520.74 338.15 515.66C343.23 510.58 343.23 502.34 338.15 497.25H338.16Z" fill="#266FB0" stroke="white" stroke-width="3" stroke-miterlimit="10"/>
<path d="M318.22 506.19C323.898 506.19 328.5 501.587 328.5 495.91C328.5 490.232 323.898 485.63 318.22 485.63C312.543 485.63 307.94 490.232 307.94 495.91C307.94 501.587 312.543 506.19 318.22 506.19Z" fill="#266FB0" stroke="white" stroke-width="3" stroke-miterlimit="10"/>
<path d="M501.92 497.25C501.38 496.71 500.79 496.24 500.19 495.81C501.04 495.29 501.84 494.67 502.58 493.94C507.66 488.86 507.66 480.62 502.58 475.53C497.5 470.45 489.26 470.45 484.17 475.53C483.42 476.28 482.8 477.1 482.27 477.96C481.8 477.26 481.26 476.59 480.64 475.97C475.56 470.89 467.32 470.89 462.23 475.97C457.15 481.05 457.15 489.29 462.23 494.38C462.87 495.02 463.55 495.57 464.27 496.05C463.32 496.6 462.41 497.28 461.59 498.09C456.51 503.17 456.51 511.41 461.59 516.5C466.67 521.58 474.91 521.58 480 516.5C480.8 515.7 481.47 514.81 482.02 513.87C482.46 514.5 482.94 515.1 483.5 515.66C488.58 520.74 496.82 520.74 501.91 515.66C507 510.58 506.99 502.34 501.91 497.25H501.92Z" fill="#266FB0" stroke="white" stroke-width="3" stroke-miterlimit="10"/>
<path d="M481.98 506.19C487.658 506.19 492.26 501.587 492.26 495.91C492.26 490.232 487.658 485.63 481.98 485.63C476.303 485.63 471.7 490.232 471.7 495.91C471.7 501.587 476.303 506.19 481.98 506.19Z" fill="#266FB0" stroke="white" stroke-width="3" stroke-miterlimit="10"/>
<path d="M301.91 437.971C297.68 438.641 289.56 442.421 289.57 442.801C289.57 443.551 296.41 443.961 298.41 445.321C299.62 446.151 299.88 448.181 299.22 449.421" fill="#266FB0"/>
<path d="M301.91 437.971C297.68 438.641 289.56 442.421 289.57 442.801C289.57 443.551 296.41 443.961 298.41 445.321C299.62 446.151 299.88 448.181 299.22 449.421" stroke="white" stroke-width="3" stroke-miterlimit="10"/>
<path d="M357.61 412.41C359.94 405.43 356.17 397.89 349.19 395.56C342.21 393.23 334.67 397 332.34 403.98C331.91 405.27 331.69 406.57 331.66 407.86C326.29 406.06 318.99 405.88 310.2 407.56C291.23 411.18 269.31 428.16 270.8 430.78C272.63 433.99 303.64 442.22 321.38 436.99C332.5 433.71 340.55 427.91 341.46 421.03C348.24 422.89 355.36 419.16 357.61 412.42V412.41Z" fill="#266FB0" stroke="white" stroke-width="3" stroke-miterlimit="10"/>
<path d="M386.28 423.27L354.46 416.77C353.81 416.64 353.42 415.95 353.65 415.33L356.17 408.34C356.36 407.81 356.97 407.58 357.46 407.84L386.27 423.27H386.28Z" fill="#266FB0" stroke="white" stroke-width="3" stroke-miterlimit="10"/>
<path d="M347.44 406.42C348.351 406.42 349.09 405.681 349.09 404.77C349.09 403.859 348.351 403.12 347.44 403.12C346.529 403.12 345.79 403.859 345.79 404.77C345.79 405.681 346.529 406.42 347.44 406.42Z" fill="#266FB0" stroke="white" stroke-width="3" stroke-miterlimit="10"/>
<path d="M321.59 413.28C310.29 402.03 298.99 390.77 287.69 379.52C287.49 379.32 287.14 379.34 287 379.59C284.9 383.27 281.6 392.5 283.74 400.4C288.1 416.53 312.81 418.44 321.21 414.55C321.76 414.29 322.02 413.71 321.59 413.28Z" fill="#266FB0" stroke="white" stroke-width="3" stroke-miterlimit="10"/>
</svg>
