<svg width="800" height="800" viewBox="0 0 800 800" fill="none" xmlns="http://www.w3.org/2000/svg">
<path d="M19.74 552.17C19.74 334.66 190.08 158.33 400.21 158.33C610.34 158.33 780.68 334.66 780.68 552.17" fill="#C3ECED"/>
<path opacity="0.99" d="M400 633.99C611.569 633.99 783.08 601.831 783.08 562.16C783.08 522.489 611.569 490.33 400 490.33C188.431 490.33 16.92 522.489 16.92 562.16C16.92 601.831 188.431 633.99 400 633.99Z" fill="#19A476" stroke="#11895D" stroke-miterlimit="10"/>
<path d="M192.11 486.4C191.54 486.4 190.98 486.45 190.41 486.49C186.82 477.28 177.89 470.75 167.42 470.75C166.74 470.75 166.08 470.8 165.42 470.85C160.9 465.04 153.86 461.29 145.93 461.29C137.02 461.29 129.23 466.03 124.89 473.11C123.7 472.93 122.48 472.81 121.24 472.81C111.7 472.81 103.44 478.23 99.33 486.15C98.42 486.05 97.49 485.98 96.55 485.98C82.91 485.98 71.86 497.03 71.86 510.67C71.86 524.31 82.91 535.36 96.55 535.36C100.9 535.36 104.99 534.22 108.54 532.25C112.25 534.49 116.59 535.8 121.24 535.8C125.89 535.8 130.23 534.49 133.94 532.25C137.49 534.23 141.58 535.36 145.93 535.36C149.79 535.36 153.42 534.45 156.67 532.87C159.92 534.45 163.56 535.36 167.41 535.36C171.76 535.36 175.85 534.22 179.4 532.25C183.11 534.49 187.45 535.8 192.1 535.8C205.74 535.8 216.79 524.75 216.79 511.11C216.79 497.47 205.74 486.42 192.1 486.42L192.11 486.4Z" fill="#22DC9F" stroke="#1DC08B" stroke-miterlimit="10"/>
<path d="M703.87 486.4C703.3 486.4 702.74 486.45 702.17 486.49C698.58 477.28 689.65 470.75 679.18 470.75C678.5 470.75 677.84 470.8 677.18 470.85C672.66 465.04 665.62 461.29 657.69 461.29C648.78 461.29 640.99 466.03 636.65 473.11C635.46 472.93 634.24 472.81 633 472.81C623.46 472.81 615.2 478.23 611.09 486.15C610.18 486.05 609.25 485.98 608.31 485.98C594.67 485.98 583.62 497.03 583.62 510.67C583.62 524.31 594.67 535.36 608.31 535.36C612.66 535.36 616.75 534.22 620.3 532.25C624.01 534.49 628.35 535.8 633 535.8C637.65 535.8 641.99 534.49 645.7 532.25C649.25 534.23 653.34 535.36 657.69 535.36C661.55 535.36 665.18 534.45 668.43 532.87C671.68 534.45 675.32 535.36 679.17 535.36C683.52 535.36 687.61 534.22 691.16 532.25C694.87 534.49 699.21 535.8 703.86 535.8C717.5 535.8 728.55 524.75 728.55 511.11C728.55 497.47 717.5 486.42 703.86 486.42L703.87 486.4Z" fill="#22DC9F" stroke="#1DC08B" stroke-miterlimit="10"/>
<path d="M710.79 620.8C710.79 597.05 621.57 577.8 511.52 577.8C401.47 577.8 312.25 597.05 312.25 620.8C312.25 639.24 366.07 654.97 441.66 661.08C421.73 663.99 408.72 668.75 408.72 674.12C408.72 682.98 443.93 690.15 487.37 690.15C530.81 690.15 566.02 682.97 566.02 674.12C566.02 669.9 557.99 666.06 544.9 663.19C639.06 659.76 710.79 642.09 710.79 620.79V620.8Z" fill="#266FB0" stroke="#153A56" stroke-miterlimit="10"/>
<path d="M509.87 427.88C508.55 427.88 507.27 427.99 505.98 428.08C497.75 406.95 477.25 391.94 453.21 391.94C451.66 391.94 450.13 392.05 448.61 392.17C438.24 378.83 422.09 370.22 403.89 370.22C383.43 370.22 365.56 381.1 355.6 397.35C352.86 396.94 350.08 396.66 347.22 396.66C325.33 396.66 306.37 409.1 296.93 427.27C294.83 427.03 292.71 426.89 290.55 426.89C259.25 426.89 233.88 452.26 233.88 483.56C233.88 514.86 259.25 540.23 290.55 540.23C300.54 540.23 309.92 537.62 318.07 533.08C326.59 538.21 336.54 541.22 347.22 541.22C357.9 541.22 367.84 538.21 376.37 533.08C384.52 537.62 393.9 540.23 403.89 540.23C412.74 540.23 421.08 538.14 428.55 534.52C436.01 538.14 444.36 540.23 453.21 540.23C463.2 540.23 472.58 537.62 480.73 533.08C489.25 538.21 499.2 541.22 509.88 541.22C541.18 541.22 566.55 515.85 566.55 484.55C566.55 453.25 541.18 427.88 509.88 427.88H509.87Z" fill="#22DC9F" stroke="#1DC08B" stroke-miterlimit="10"/>
<path d="M428.73 430.12C428.03 429.42 427.28 428.82 426.51 428.27C427.6 427.6 428.63 426.81 429.58 425.87C436.1 419.35 436.1 408.78 429.58 402.25C423.06 395.73 412.49 395.73 405.96 402.25C405 403.21 404.2 404.26 403.52 405.37C402.92 404.47 402.23 403.62 401.43 402.82C394.91 396.3 384.34 396.3 377.81 402.82C371.28 409.34 371.29 419.91 377.81 426.44C378.63 427.26 379.5 427.97 380.43 428.58C379.21 429.29 378.05 430.15 377 431.2C370.48 437.72 370.48 448.29 377 454.82C383.52 461.34 394.09 461.34 400.62 454.82C401.65 453.79 402.5 452.65 403.21 451.44C403.77 452.25 404.4 453.02 405.11 453.74C411.63 460.26 422.2 460.26 428.73 453.74C435.25 447.22 435.25 436.65 428.73 430.12Z" fill="#EA7875" stroke="#EA7875" stroke-width="3" stroke-miterlimit="10"/>
<path d="M403.15 441.59C410.435 441.59 416.34 435.685 416.34 428.4C416.34 421.115 410.435 415.21 403.15 415.21C395.865 415.21 389.96 421.115 389.96 428.4C389.96 435.685 395.865 441.59 403.15 441.59Z" fill="#EDAE70"/>
<path d="M338.16 486.39C337.62 485.85 337.03 485.38 336.43 484.95C337.28 484.43 338.08 483.81 338.82 483.08C343.9 478 343.9 469.76 338.82 464.67C333.74 459.59 325.5 459.59 320.41 464.67C319.66 465.42 319.04 466.24 318.51 467.1C318.04 466.4 317.5 465.73 316.88 465.11C311.8 460.03 303.56 460.03 298.47 465.11C293.39 470.19 293.39 478.43 298.47 483.52C299.11 484.16 299.79 484.71 300.51 485.19C299.56 485.74 298.65 486.42 297.83 487.23C292.75 492.31 292.75 500.55 297.83 505.64C302.91 510.72 311.15 510.72 316.24 505.64C317.04 504.84 317.71 503.95 318.26 503.01C318.7 503.64 319.18 504.24 319.74 504.8C324.82 509.88 333.06 509.88 338.15 504.8C343.23 499.72 343.23 491.48 338.15 486.39H338.16Z" fill="#EA7875" stroke="#EA7875" stroke-width="3" stroke-miterlimit="10"/>
<path d="M318.22 495.331C323.898 495.331 328.5 490.728 328.5 485.051C328.5 479.373 323.898 474.771 318.22 474.771C312.543 474.771 307.94 479.373 307.94 485.051C307.94 490.728 312.543 495.331 318.22 495.331Z" fill="#EDAE70"/>
<path d="M501.92 486.39C501.38 485.85 500.79 485.38 500.19 484.95C501.04 484.43 501.84 483.81 502.58 483.08C507.66 478 507.66 469.76 502.58 464.67C497.5 459.59 489.26 459.59 484.17 464.67C483.42 465.42 482.8 466.24 482.27 467.1C481.8 466.4 481.26 465.73 480.64 465.11C475.56 460.03 467.32 460.03 462.23 465.11C457.15 470.19 457.15 478.43 462.23 483.52C462.87 484.16 463.55 484.71 464.27 485.19C463.32 485.74 462.41 486.42 461.59 487.23C456.51 492.31 456.51 500.55 461.59 505.64C466.67 510.72 474.91 510.72 480 505.64C480.8 504.84 481.47 503.95 482.02 503.01C482.46 503.64 482.94 504.24 483.5 504.8C488.58 509.88 496.82 509.88 501.91 504.8C507 499.72 506.99 491.48 501.91 486.39H501.92Z" fill="#EA7875" stroke="#EA7875" stroke-width="3" stroke-miterlimit="10"/>
<path d="M481.98 495.331C487.658 495.331 492.26 490.728 492.26 485.051C492.26 479.373 487.658 474.771 481.98 474.771C476.303 474.771 471.7 479.373 471.7 485.051C471.7 490.728 476.303 495.331 481.98 495.331Z" fill="#EDAE70"/>
<path d="M301.91 427.1C297.68 427.77 289.56 431.55 289.57 431.93C289.57 432.68 296.41 433.09 298.41 434.45C299.62 435.28 299.88 437.31 299.22 438.55" fill="#266FB0"/>
<path d="M301.91 427.1C297.68 427.77 289.56 431.55 289.57 431.93C289.57 432.68 296.41 433.09 298.41 434.45C299.62 435.28 299.88 437.31 299.22 438.55" stroke="#153A56" stroke-miterlimit="10"/>
<path d="M357.61 401.54C359.94 394.56 356.17 387.02 349.19 384.69C342.21 382.36 334.67 386.13 332.34 393.11C331.91 394.4 331.69 395.7 331.66 396.99C326.29 395.19 318.99 395.01 310.2 396.69C291.23 400.31 269.31 417.29 270.8 419.91C272.63 423.12 303.64 431.35 321.38 426.12C332.5 422.84 340.55 417.04 341.46 410.16C348.24 412.02 355.36 408.29 357.61 401.55V401.54Z" fill="#266FB0" stroke="#153A56" stroke-miterlimit="10"/>
<path d="M386.28 412.409L354.46 405.909C353.81 405.779 353.42 405.089 353.65 404.469L356.17 397.479C356.36 396.949 356.97 396.719 357.46 396.979L386.27 412.409H386.28Z" fill="#EDAE70"/>
<path d="M347.44 395.55C348.351 395.55 349.09 394.811 349.09 393.9C349.09 392.989 348.351 392.25 347.44 392.25C346.529 392.25 345.79 392.989 345.79 393.9C345.79 394.811 346.529 395.55 347.44 395.55Z" fill="#266FB0" stroke="#153A56" stroke-miterlimit="10"/>
<path d="M321.59 402.42C310.29 391.17 298.99 379.91 287.69 368.66C287.49 368.46 287.14 368.48 287 368.73C284.9 372.41 281.6 381.64 283.74 389.54C288.1 405.67 312.81 407.58 321.21 403.69C321.76 403.43 322.02 402.85 321.59 402.42Z" fill="#266FB0" stroke="#153A56" stroke-miterlimit="10"/>
</svg>
