<svg width="800" height="800" viewBox="0 0 800 800" fill="none" xmlns="http://www.w3.org/2000/svg">
<path d="M19.53 548.83C19.53 331.32 189.87 154.99 400 154.99C610.13 154.99 780.47 331.32 780.47 548.83" fill="#C3ECED"/>
<path opacity="0.99" d="M399.79 630.64C611.359 630.64 782.87 598.481 782.87 558.81C782.87 519.14 611.359 486.98 399.79 486.98C188.221 486.98 16.71 519.14 16.71 558.81C16.71 598.481 188.221 630.64 399.79 630.64Z" fill="#19A476" stroke="#11895D" stroke-miterlimit="10"/>
<g opacity="0.99">
<path d="M643.76 280.46H627.57V524.83H643.76V280.46Z" fill="#771707"/>
<path d="M707.82 308.23C713.71 300.52 717.21 290.9 717.21 280.46C717.21 256.1 698.19 236.19 674.2 234.75C676.66 229.13 678.03 222.93 678.03 216.41C678.03 191.11 657.52 170.6 632.22 170.6C606.92 170.6 586.41 191.11 586.41 216.41C586.41 224.42 588.47 231.95 592.09 238.5C568.66 240.52 550.27 260.17 550.27 284.12C550.27 294.53 553.75 304.13 559.6 311.82C545.51 319.63 535.96 334.65 535.96 351.91C535.96 377.21 556.47 397.72 581.77 397.72C591.98 397.72 601.4 394.38 609.02 388.73C616.64 394.38 626.06 397.72 636.27 397.72C647.21 397.72 657.25 393.88 665.13 387.48C673.01 393.88 683.05 397.72 693.99 397.72C719.29 397.72 739.8 377.21 739.8 351.91C739.8 331.43 726.36 314.1 707.83 308.23H707.82Z" fill="#19A476" stroke="#11895D" stroke-miterlimit="10"/>
</g>
<g opacity="0.99">
<path d="M172 280.46H155.81V524.83H172V280.46Z" fill="#771707"/>
<path d="M236.05 308.23C241.94 300.52 245.44 290.9 245.44 280.46C245.44 256.1 226.42 236.19 202.43 234.75C204.89 229.13 206.26 222.93 206.26 216.41C206.26 191.11 185.75 170.6 160.45 170.6C135.15 170.6 114.64 191.11 114.64 216.41C114.64 224.42 116.7 231.95 120.32 238.5C96.8899 240.52 78.4999 260.17 78.4999 284.12C78.4999 294.53 81.9799 304.13 87.8299 311.82C73.7399 319.63 64.1899 334.65 64.1899 351.91C64.1899 377.21 84.6999 397.72 110 397.72C120.21 397.72 129.63 394.38 137.25 388.73C144.87 394.38 154.29 397.72 164.5 397.72C175.44 397.72 185.48 393.88 193.36 387.48C201.24 393.88 211.28 397.72 222.22 397.72C247.52 397.72 268.03 377.21 268.03 351.91C268.03 331.43 254.59 314.1 236.06 308.23H236.05Z" fill="#19A476" stroke="#11895D" stroke-miterlimit="10"/>
</g>
<path d="M212.28 483.05C211.71 483.05 211.15 483.1 210.58 483.14C206.99 473.93 198.06 467.4 187.59 467.4C186.91 467.4 186.25 467.45 185.59 467.5C181.07 461.69 174.03 457.94 166.1 457.94C157.19 457.94 149.4 462.68 145.06 469.76C143.87 469.58 142.65 469.46 141.41 469.46C131.87 469.46 123.61 474.88 119.5 482.8C118.59 482.7 117.66 482.63 116.72 482.63C103.08 482.63 92.03 493.68 92.03 507.32C92.03 520.96 103.08 532.01 116.72 532.01C121.07 532.01 125.16 530.87 128.71 528.9C132.42 531.14 136.76 532.45 141.41 532.45C146.06 532.45 150.4 531.14 154.11 528.9C157.66 530.88 161.75 532.01 166.1 532.01C169.96 532.01 173.59 531.1 176.84 529.52C180.09 531.1 183.73 532.01 187.58 532.01C191.93 532.01 196.02 530.87 199.57 528.9C203.28 531.14 207.62 532.45 212.27 532.45C225.91 532.45 236.96 521.4 236.96 507.76C236.96 494.12 225.91 483.07 212.27 483.07L212.28 483.05Z" fill="#22DC9F" stroke="#1DC08B" stroke-miterlimit="10"/>
<path d="M684.05 483.05C683.48 483.05 682.92 483.1 682.35 483.14C678.76 473.93 669.83 467.4 659.36 467.4C658.68 467.4 658.02 467.45 657.36 467.5C652.84 461.69 645.8 457.94 637.87 457.94C628.96 457.94 621.17 462.68 616.83 469.76C615.64 469.58 614.42 469.46 613.18 469.46C603.64 469.46 595.38 474.88 591.27 482.8C590.36 482.7 589.43 482.63 588.49 482.63C574.85 482.63 563.8 493.68 563.8 507.32C563.8 520.96 574.85 532.01 588.49 532.01C592.84 532.01 596.93 530.87 600.48 528.9C604.19 531.14 608.53 532.45 613.18 532.45C617.83 532.45 622.17 531.14 625.88 528.9C629.43 530.88 633.52 532.01 637.87 532.01C641.73 532.01 645.36 531.1 648.61 529.52C651.86 531.1 655.5 532.01 659.35 532.01C663.7 532.01 667.79 530.87 671.34 528.9C675.05 531.14 679.39 532.45 684.04 532.45C697.68 532.45 708.73 521.4 708.73 507.76C708.73 494.12 697.68 483.07 684.04 483.07L684.05 483.05Z" fill="#22DC9F" stroke="#1DC08B" stroke-miterlimit="10"/>
<path d="M710.58 617.46C710.58 593.71 621.36 574.46 511.31 574.46C401.26 574.46 312.04 593.71 312.04 617.46C312.04 635.9 365.86 651.63 441.45 657.74C421.52 660.65 408.51 665.41 408.51 670.78C408.51 679.64 443.72 686.81 487.16 686.81C530.6 686.81 565.81 679.63 565.81 670.78C565.81 666.56 557.78 662.72 544.69 659.85C638.85 656.42 710.58 638.75 710.58 617.45V617.46Z" fill="#266FB0" stroke="#153A56" stroke-miterlimit="10"/>
<path d="M476.06 455.43C475.15 455.43 474.26 455.51 473.36 455.57C467.65 440.91 453.43 430.51 436.76 430.51C435.68 430.51 434.63 430.59 433.57 430.67C426.38 421.42 415.18 415.45 402.55 415.45C388.36 415.45 375.97 422.99 369.06 434.27C367.16 433.99 365.23 433.79 363.25 433.79C348.07 433.79 334.92 442.42 328.37 455.02C326.92 454.86 325.44 454.75 323.94 454.75C302.23 454.75 284.64 472.35 284.64 494.05C284.64 515.75 302.24 533.35 323.94 533.35C330.87 533.35 337.37 531.54 343.03 528.39C348.94 531.95 355.84 534.03 363.25 534.03C370.66 534.03 377.55 531.95 383.47 528.39C389.12 531.54 395.63 533.35 402.56 533.35C408.7 533.35 414.49 531.9 419.66 529.39C424.84 531.9 430.62 533.35 436.76 533.35C443.69 533.35 450.19 531.54 455.85 528.39C461.76 531.95 468.66 534.03 476.07 534.03C497.78 534.03 515.37 516.43 515.37 494.73C515.37 473.03 497.77 455.43 476.07 455.43H476.06Z" fill="#22DC9F" stroke="#1DC08B" stroke-miterlimit="10"/>
<path d="M419.78 456.99C419.3 456.51 418.78 456.09 418.24 455.71C418.99 455.24 419.71 454.7 420.37 454.04C424.89 449.52 424.89 442.18 420.37 437.66C415.85 433.14 408.51 433.14 403.99 437.66C403.33 438.32 402.77 439.05 402.3 439.82C401.88 439.2 401.4 438.6 400.85 438.05C396.33 433.53 388.99 433.53 384.47 438.05C379.95 442.57 379.95 449.91 384.47 454.43C385.04 455 385.65 455.49 386.29 455.92C385.44 456.41 384.64 457.01 383.91 457.74C379.39 462.26 379.39 469.6 383.91 474.12C388.43 478.64 395.77 478.64 400.29 474.12C401.01 473.4 401.6 472.61 402.08 471.78C402.47 472.34 402.9 472.88 403.4 473.37C407.92 477.89 415.26 477.89 419.78 473.37C424.3 468.85 424.3 461.51 419.78 456.99Z" fill="#EA7875" stroke="#EA7875" stroke-width="3" stroke-miterlimit="10"/>
<path d="M402.04 464.95C407.093 464.95 411.19 460.854 411.19 455.8C411.19 450.747 407.093 446.65 402.04 446.65C396.987 446.65 392.89 450.747 392.89 455.8C392.89 460.854 396.987 464.95 402.04 464.95Z" fill="#EDAE70"/>
<path d="M356.96 496.01C356.58 495.63 356.18 495.31 355.76 495.01C356.35 494.65 356.91 494.22 357.42 493.71C360.95 490.18 360.95 484.47 357.42 480.94C353.89 477.41 348.18 477.41 344.65 480.94C344.13 481.46 343.7 482.03 343.33 482.63C343.01 482.14 342.63 481.68 342.2 481.25C338.67 477.72 332.96 477.72 329.43 481.25C325.9 484.78 325.9 490.49 329.43 494.02C329.87 494.46 330.35 494.85 330.85 495.18C330.19 495.56 329.56 496.03 328.99 496.6C325.46 500.13 325.46 505.84 328.99 509.37C332.52 512.9 338.23 512.9 341.76 509.37C342.32 508.81 342.78 508.19 343.16 507.54C343.46 507.98 343.8 508.39 344.19 508.78C347.72 512.31 353.43 512.31 356.96 508.78C360.49 505.25 360.49 499.54 356.96 496.01Z" fill="#EA7875" stroke="#EA7875" stroke-width="3" stroke-miterlimit="10"/>
<path d="M343.14 502.21C347.078 502.21 350.27 499.018 350.27 495.08C350.27 491.142 347.078 487.95 343.14 487.95C339.202 487.95 336.01 491.142 336.01 495.08C336.01 499.018 339.202 502.21 343.14 502.21Z" fill="#EDAE70"/>
<path d="M470.54 496.01C470.16 495.63 469.76 495.31 469.34 495.01C469.93 494.65 470.49 494.22 471 493.71C474.53 490.18 474.53 484.47 471 480.94C467.47 477.41 461.76 477.41 458.23 480.94C457.71 481.46 457.28 482.03 456.91 482.63C456.59 482.14 456.21 481.68 455.78 481.25C452.25 477.72 446.54 477.72 443.01 481.25C439.48 484.78 439.48 490.49 443.01 494.02C443.45 494.46 443.93 494.85 444.43 495.18C443.77 495.56 443.14 496.03 442.57 496.6C439.04 500.13 439.04 505.84 442.57 509.37C446.1 512.9 451.81 512.9 455.34 509.37C455.9 508.81 456.36 508.19 456.74 507.54C457.04 507.98 457.38 508.39 457.77 508.78C461.3 512.31 467.01 512.31 470.54 508.78C474.07 505.25 474.07 499.54 470.54 496.01Z" fill="#EA7875" stroke="#EA7875" stroke-width="3" stroke-miterlimit="10"/>
<path d="M456.72 502.21C460.658 502.21 463.85 499.018 463.85 495.08C463.85 491.142 460.658 487.95 456.72 487.95C452.782 487.95 449.59 491.142 449.59 495.08C449.59 499.018 452.782 502.21 456.72 502.21Z" fill="#EDAE70"/>
<path d="M324.36 460.17C321.09 460.68 314.82 463.61 314.83 463.9C314.83 464.48 320.11 464.79 321.66 465.85C322.6 466.49 322.79 468.06 322.29 469.02" stroke="#153A56" stroke-miterlimit="10"/>
<path d="M367.39 440.43C369.19 435.04 366.28 429.21 360.89 427.41C355.5 425.61 349.67 428.52 347.87 433.91C347.54 434.9 347.37 435.91 347.34 436.91C343.19 435.52 337.55 435.38 330.76 436.68C316.11 439.48 299.17 452.59 300.33 454.62C301.74 457.1 325.7 463.45 339.4 459.42C347.99 456.89 354.21 452.41 354.91 447.09C360.14 448.53 365.65 445.65 367.38 440.44L367.39 440.43Z" fill="#266FB0" stroke="#153A56" stroke-miterlimit="10"/>
<path d="M389.53 448.819L365.24 443.859C364.59 443.729 364.2 443.039 364.43 442.419L366.2 437.519C366.39 436.989 367 436.759 367.49 437.019L389.53 448.819Z" fill="#EDAE70"/>
<path d="M359.53 435.79C360.231 435.79 360.8 435.221 360.8 434.52C360.8 433.819 360.231 433.25 359.53 433.25C358.829 433.25 358.26 433.819 358.26 434.52C358.26 435.221 358.829 435.79 359.53 435.79Z" fill="black" stroke="#153A56" stroke-miterlimit="10"/>
<path d="M339.56 441.1C330.83 432.41 322.1 423.71 313.38 415.02C313.22 414.86 312.96 414.88 312.85 415.08C311.23 417.92 308.68 425.06 310.33 431.16C313.7 443.62 332.78 445.1 339.27 442.09C339.7 441.89 339.9 441.44 339.57 441.11L339.56 441.1Z" fill="#266FB0" stroke="#153A56" stroke-miterlimit="10"/>
</svg>
